<svg width="100%" min-height="0" viewBox="0 0 1786 708" fill="none"
    xmlns="http://www.w3.org/2000/svg">
    <g id="logo-white-text">
        <g id="logo">
            <path id="Vector" d="M50.9651 587.883C51.3351 588.163 51.7551 588.393 52.0551 588.733C57.4351 594.863 64.0451 599.373 71.2751 602.943C76.9551 605.753 82.7851 608.283 88.6451 610.703C114.735 621.453 140.865 632.093 166.965 642.823C184.775 650.143 202.555 657.533 220.355 664.903C228.425 668.243 236.475 671.663 244.575 674.923C248.865 676.653 253.305 677.923 257.905 678.573C267.195 679.873 275.475 677.913 282.385 671.243C286.565 667.213 289.935 662.573 292.445 657.393C295.015 652.093 297.325 646.653 299.625 641.223C305.875 626.463 312.145 611.703 318.235 596.873C324.975 580.443 331.395 563.883 338.185 547.473C346.805 526.643 355.715 505.933 364.365 485.113C373.915 462.133 383.325 439.103 392.775 416.083C396.985 405.833 401.205 395.593 405.285 385.293C407.805 378.923 409.655 372.333 410.955 365.583C413.405 352.833 412.265 340.363 407.645 328.313C400.075 308.553 389.935 290.153 377.215 273.223C370.755 264.623 363.615 256.583 356.425 248.593C349.005 240.353 341.245 232.453 333.085 224.943C329.975 222.083 327.025 219.033 324.135 215.943C321.775 213.423 319.575 210.763 317.385 208.093C312.485 202.143 309.035 195.323 306.185 188.233C302.765 179.703 302.145 170.783 303.805 161.783C305.995 149.913 310.655 139.043 318.415 129.763C327.305 119.133 338.755 112.583 352.435 110.173C362.455 108.413 372.225 109.503 381.435 113.913C394.145 119.983 402.015 130.073 405.365 143.713C406.645 148.923 407.035 154.263 407.605 159.573C408.295 166.043 407.395 172.463 407.005 178.903C406.975 179.413 406.775 179.913 406.645 180.413C406.505 180.413 406.365 180.413 406.215 180.403C406.125 179.833 405.965 179.263 405.945 178.683C405.885 177.013 405.895 175.343 405.835 173.673C405.615 167.893 405.545 162.093 405.095 156.323C404.605 149.983 403.475 143.713 400.845 137.853C394.945 124.723 384.785 116.693 370.835 113.693C358.555 111.043 347.025 113.753 336.345 120.003C321.025 128.963 311.955 142.323 309.235 159.873C307.475 171.173 308.745 182.173 313.065 192.803C314.015 195.143 315.315 197.273 316.795 199.303C320.765 204.763 325.105 209.903 329.645 214.903C340.695 227.063 351.785 239.183 362.735 251.423C370.495 260.103 377.645 269.283 384.595 278.623C389.525 285.243 393.965 292.183 398.495 299.063C401.815 304.103 404.245 309.623 406.725 315.103C410.735 323.973 413.515 333.233 415.195 342.823C416.555 350.543 416.355 358.223 414.925 365.903C413.275 374.753 410.495 383.253 407.025 391.543C395.355 419.493 383.745 447.453 371.975 475.363C365.315 491.163 358.415 506.863 351.595 522.593C343.955 540.223 336.885 558.083 329.775 575.933C321.865 595.793 313.675 615.543 305.635 635.343C303.305 641.063 301.185 646.883 298.705 652.533C296.945 656.553 294.885 660.453 292.705 664.263C289.825 669.293 285.945 673.513 281.295 677.003C277.245 680.043 272.665 681.753 267.645 682.423C261.355 683.263 255.315 682.373 249.515 679.913C234.705 673.633 219.935 667.253 205.125 660.973C173.755 647.693 142.365 634.453 110.975 621.213C101.435 617.183 91.8551 613.253 82.3551 609.153C77.8151 607.193 73.4351 604.843 68.9051 602.843C65.5251 601.353 62.4751 599.353 59.4551 597.273C56.1051 594.963 53.6851 591.743 50.9751 588.803C50.8351 588.653 50.7851 588.423 50.6851 588.233L50.9651 587.913V587.883Z" fill="#000E3C" />
            <path id="Vector_2" d="M114.735 512.123C186.315 458.253 257.905 404.373 329.495 350.503C329.735 350.323 330.065 350.243 330.395 350.103C330.825 350.843 330.625 351.363 330.125 351.813C329.705 352.183 329.255 352.513 328.815 352.843C297.045 376.753 265.275 400.673 233.505 424.583C195.595 453.113 157.685 481.653 119.775 510.193C119.305 510.543 118.865 510.943 118.405 511.313C118.605 511.523 118.685 511.673 118.745 511.663C120.715 511.483 122.445 512.253 124.195 512.993C133.845 517.063 143.495 521.113 153.145 525.163C154.275 525.633 155.435 526.043 155.915 527.543C156.585 527.083 157.135 526.723 157.655 526.333C188.115 503.363 218.565 480.383 249.025 457.413C273.745 438.763 298.475 420.133 323.195 401.483C337.465 390.723 351.735 379.943 366.005 369.183C366.625 368.713 367.235 368.223 367.895 367.803C368.745 367.263 369.665 367.003 371.105 367.233C370.275 367.923 369.755 368.393 369.195 368.813C352.965 381.053 336.735 393.293 320.505 405.533C268.355 444.873 216.195 484.203 164.045 523.543C161.735 525.283 159.375 526.983 157.125 528.793C156.075 529.633 155.175 529.733 153.935 529.203C142.045 524.153 130.135 519.163 118.225 514.153C117.065 513.663 115.915 513.143 114.765 512.633C114.755 512.463 114.735 512.283 114.725 512.113L114.735 512.123Z" fill="#000E3C" />
            <path id="Vector_3" d="M259.025 384.283C258.895 384.623 258.795 384.983 258.645 385.313C254.445 394.033 249.055 401.883 241.745 408.303C234.495 414.673 226.175 418.883 216.585 420.193C206.835 421.523 197.245 420.773 188.095 416.813C183.295 414.733 178.515 412.593 174.095 409.753C167.445 405.473 161.785 400.213 157.685 393.383C154.095 387.403 152.145 380.913 151.525 373.983C150.615 363.773 152.655 354.033 156.095 344.523C159.445 335.243 163.895 326.553 170.165 318.873C175.775 311.993 182.475 306.493 190.715 303.003C198.315 299.783 206.245 298.893 214.435 299.483C220.155 299.903 225.685 301.023 230.935 303.323C235.675 305.403 240.445 307.423 244.865 310.173C251.915 314.563 257.965 319.973 262.195 327.213C266.375 334.373 268.225 342.123 267.945 350.403C267.935 350.733 267.895 351.053 267.865 351.513C267.565 348.773 267.405 346.173 266.995 343.603C265.425 333.763 261.155 325.333 253.815 318.503C243.955 309.333 232.505 303.203 219.275 300.603C208.645 298.513 198.575 300.303 189.055 305.413C179.425 310.573 172.205 318.263 166.295 327.283C163.475 331.583 161.215 336.153 159.995 341.213C159.405 343.633 158.315 345.933 157.585 348.323C155.335 355.683 154.285 363.213 154.735 370.913C155.385 382.153 159.455 391.953 167.585 399.833C178.685 410.593 192.105 416.443 207.435 417.813C214.625 418.453 221.665 417.393 228.395 414.653C234.105 412.323 238.925 408.673 243.435 404.553C249.415 399.083 254.195 392.693 258.045 385.583C258.305 385.113 258.595 384.653 258.865 384.193C258.935 384.223 258.995 384.253 259.065 384.293L259.025 384.283Z" fill="#000E3C" />
            <path id="Vector_4" d="M305.235 460.923C304.555 460.703 303.875 460.483 303.205 460.253C298.985 458.813 294.755 457.413 290.335 456.713C276.595 454.523 264.255 457.783 253.295 466.303C246.515 471.573 241.245 478.143 236.975 485.553C234.575 489.713 232.485 494.043 230.975 498.583C227.955 507.673 225.935 516.983 226.655 526.633C227.525 538.293 232.015 548.353 240.505 556.553C250.065 565.773 261.445 571.253 274.465 573.603C290.375 576.473 303.945 571.893 315.565 560.963C322.175 554.733 327.325 547.403 330.945 539.103C334.295 531.453 337.265 523.643 338.585 515.313C339.525 509.383 339.675 503.453 338.615 497.523C337.065 488.873 333.225 481.413 326.955 475.243C325.215 473.523 323.375 471.903 321.575 470.243C321.215 469.913 320.835 469.593 320.585 469.063C320.835 469.173 321.125 469.233 321.345 469.383C332.105 477.353 338.585 487.813 339.915 501.273C340.735 509.503 339.475 517.503 337.115 525.343C333.875 536.083 329.245 546.173 322.435 555.163C317.155 562.143 310.815 567.903 302.945 571.863C297.205 574.743 291.125 576.373 284.695 576.803C275.165 577.443 266.095 575.903 257.415 571.803C252.565 569.523 247.775 567.193 243.405 564.063C234.615 557.773 228.275 549.673 225.255 539.183C223.445 532.893 222.945 526.483 223.675 519.993C225.585 503.123 231.935 488.063 242.455 474.793C248.605 467.043 256.295 461.273 265.725 458.023C271.905 455.893 278.275 455.203 284.805 455.513C291.275 455.813 297.495 457.063 303.435 459.673C304.085 459.963 304.725 460.273 305.365 460.583C305.325 460.703 305.275 460.823 305.235 460.943V460.923Z" fill="#000E3C" />
            <path id="Vector_5" d="M462.355 227.643C462.495 227.373 462.605 227.073 462.785 226.843C468.835 219.203 472.575 210.443 475.245 201.173C477.805 192.323 479.245 183.263 480.065 174.093C480.555 168.653 480.815 163.213 480.705 157.753C480.455 145.503 478.645 133.483 475.195 121.723C471.835 110.283 466.995 99.5134 460.795 89.3234C457.365 83.6834 453.405 78.4734 449.225 73.4034C448.845 72.9334 448.465 72.4634 448.235 71.7834C448.515 71.9634 448.825 72.1134 449.065 72.3434C452.835 75.9734 456.665 79.5434 460.345 83.2634C462.405 85.3434 464.255 87.6034 465.765 90.1834C474.405 104.943 479.695 120.843 482.155 137.723C483.425 146.443 484.035 155.213 483.765 164.023C483.295 179.653 480.935 194.953 474.985 209.523C473.705 212.663 472.125 215.683 470.565 218.693C468.805 222.113 466.105 224.783 463.295 227.343C463.075 227.543 462.775 227.653 462.515 227.813C462.455 227.753 462.395 227.703 462.345 227.643H462.355Z" fill="#000E3C" />
            <path id="Vector_6" d="M261.765 78.2434C262.075 76.3734 262.945 74.8534 264.035 73.4634C268.755 67.4434 273.965 61.8934 279.675 56.8034C291.645 46.1234 305.055 37.8134 320.225 32.4534C329.465 29.1934 338.975 27.2234 348.755 26.5434C364.755 25.4334 380.835 27.6534 395.955 32.9834C408.235 37.3134 419.505 43.1334 428.785 52.4234C430.305 53.9534 432.435 55.7034 433.455 57.5934C433.035 57.6134 432.585 57.2634 432.195 56.9634C431.435 56.3534 430.655 55.7634 429.875 55.1734C428.325 54.0034 426.745 52.8634 425.155 51.7534C421.915 49.5034 418.575 47.3934 415.145 45.4334C408.275 41.5034 401.045 38.1934 393.555 35.6134C384.465 32.4734 375.155 30.3334 365.585 29.4434C339.095 26.9834 314.925 33.5134 292.975 48.4434C281.695 56.1134 271.975 65.4534 263.505 76.1234C262.935 76.8434 262.345 77.5334 261.765 78.2434Z" fill="#000E3C" />
            <path id="Vector_7" d="M103.185 442.313C102.925 443.153 102.725 444.033 102.385 444.843C92.465 468.813 82.525 492.783 72.585 516.743C69.125 525.073 65.635 533.393 62.155 541.713C61.855 542.423 61.515 543.113 60.915 543.733C61.085 543.133 61.225 542.523 61.445 541.943C64.085 535.143 66.605 528.293 69.425 521.573C80.275 495.753 91.215 469.973 102.135 444.183C102.415 443.523 102.825 442.933 103.175 442.303L103.185 442.313Z" fill="white" />
            <path id="Vector_8" d="M438.745 238.683C436.935 239.273 435.165 239.313 433.405 238.923C427.535 237.623 422.285 235.033 417.675 231.183C416.625 230.313 415.675 229.333 415.335 227.843C421.815 234.343 429.585 237.983 438.755 238.683H438.745Z" fill="white" />
            <path id="Vector_9" d="M104.845 438.303C104.295 439.643 103.735 440.973 103.185 442.313C103.745 440.983 104.305 439.653 104.875 438.323L104.855 438.303H104.845Z" fill="white" />
            <path id="Vector_10" d="M104.865 438.323L105.875 435.993L105.845 435.973C105.515 436.753 105.175 437.533 104.845 438.303L104.865 438.323Z" fill="white" />
            <path id="Vector_11" d="M108.795 428.983C108.785 428.883 108.755 428.803 108.765 428.723C108.765 428.683 108.825 428.643 108.865 428.613C108.915 428.663 109.005 428.743 108.995 428.773C108.945 428.853 108.865 428.913 108.795 428.993V428.983Z" fill="white" />
            <path id="Vector_12" d="M107.385 432.653C107.305 432.783 107.215 432.923 107.135 433.053C107.085 433.023 107.035 432.983 106.985 432.953C107.065 432.813 107.155 432.683 107.235 432.543C107.285 432.573 107.335 432.613 107.385 432.643V432.653Z" fill="white" />
            <path id="Vector_13" d="M105.875 435.983C105.955 435.643 106.035 435.303 106.115 434.963L106.365 435.073C106.195 435.373 106.025 435.673 105.845 435.973L105.875 435.993V435.983Z" fill="white" />
            <path id="Vector_14" d="M200.635 343.633C200.335 344.153 200.035 344.673 199.725 345.193C195.505 352.353 192.535 360.003 190.995 368.183C190.475 370.943 190.355 373.723 191.115 376.463C192.385 381.063 195.525 383.793 199.995 385.133C201.165 385.483 202.355 385.793 203.525 386.133C206.005 386.843 208.405 386.613 210.605 385.253C211.825 384.503 213.005 383.613 214.025 382.613C215.165 381.483 216.235 380.233 217.115 378.903C222.415 370.883 226.185 362.193 228.225 352.783C228.815 350.043 228.995 347.273 228.385 344.493C227.875 342.133 226.815 340.073 224.965 338.513C221.215 335.333 216.875 333.913 211.955 334.533C211.195 334.633 210.465 334.973 209.725 335.203C209.375 335.313 209.035 335.423 208.405 335.623C210.405 332.723 212.855 331.213 216.115 331.413C220.825 331.713 224.995 333.403 228.475 336.633C230.165 338.203 231.075 340.203 231.475 342.473C232.215 346.673 231.835 350.823 230.685 354.873C228.485 362.623 225.235 369.943 221.035 376.823C219.165 379.883 216.895 382.613 213.965 384.753C210.945 386.973 207.635 387.893 203.895 387.213C201.235 386.733 198.705 385.953 196.395 384.523C192.705 382.243 190.625 378.943 190.005 374.633C189.585 371.713 189.855 368.853 190.455 366.013C191.945 358.993 194.545 352.373 197.935 346.063C198.595 344.823 199.255 344.183 200.615 343.653L200.635 343.633Z" fill="#000E3C" />
            <path id="Vector_15" d="M272.355 500.453C272.105 500.923 271.875 501.403 271.605 501.863C267.875 508.323 265.205 515.193 263.525 522.453C262.945 524.963 262.755 527.513 262.905 530.083C263.195 535.063 266.375 539.733 272.345 541.243C273.475 541.533 274.595 541.883 275.715 542.193C278.205 542.883 280.565 542.523 282.785 541.233C284.995 539.953 286.725 538.153 288.255 536.153C291.565 531.823 293.885 526.953 295.995 521.973C297.975 517.303 299.685 512.543 300.425 507.483C300.755 505.213 300.815 502.943 300.335 500.683C299.755 497.953 298.395 495.713 296.145 494.063C293.055 491.803 289.605 490.483 285.735 490.593C284.425 490.633 283.135 491.013 281.825 491.233C282.615 489.093 285.075 487.423 287.685 487.543C292.695 487.783 297.145 489.483 300.775 493.043C302.255 494.493 303.095 496.293 303.475 498.313C304.245 502.383 303.985 506.433 302.905 510.393C300.615 518.823 297.105 526.743 292.375 534.103C290.765 536.603 288.795 538.783 286.405 540.573C282.855 543.233 279.005 544.263 274.615 543.113C271.945 542.413 269.405 541.493 267.195 539.803C264.955 538.093 263.415 535.903 262.725 533.143C261.885 529.793 261.795 526.413 262.405 523.033C263.675 516.013 266.265 509.453 269.525 503.143C270.135 501.963 271.085 501.073 272.075 500.243C272.165 500.313 272.255 500.383 272.345 500.453H272.355Z" fill="#000E3C" />
            <path id="Vector_16" d="M307.565 489.703C305.365 488.583 303.065 487.803 300.665 487.253C297.845 486.613 295.025 485.993 292.225 485.283C286.265 483.763 280.895 484.973 276.035 488.653C273.345 490.693 271.145 493.193 269.245 495.963C264.815 502.403 261.905 509.543 259.615 516.963C258.185 521.623 257.295 526.363 257.705 531.263C258.055 535.383 259.485 539.043 262.465 542.013C265.885 545.423 270.085 547.353 274.705 548.443C277.835 549.183 281.015 549.733 284.145 550.513C289.465 551.843 294.285 550.853 298.645 547.583C302.085 545.003 304.625 541.623 306.805 537.973C310.535 531.733 313.365 525.093 315.565 518.183C316.795 514.303 317.665 510.343 317.645 506.833C317.695 498.643 314.325 493.153 307.565 489.713V489.703ZM302.925 510.383C300.635 518.813 297.125 526.733 292.395 534.093C290.785 536.593 288.815 538.773 286.425 540.563C282.875 543.223 279.025 544.253 274.635 543.103C271.965 542.403 269.425 541.483 267.215 539.793C264.975 538.083 263.435 535.893 262.745 533.133C261.905 529.783 261.815 526.403 262.425 523.023C263.695 516.003 266.285 509.443 269.545 503.133C270.155 501.953 271.105 501.063 272.095 500.233L272.365 500.443C272.115 500.913 271.885 501.393 271.615 501.853C267.885 508.313 265.215 515.183 263.535 522.443C262.955 524.953 262.765 527.503 262.915 530.073C263.205 535.053 266.385 539.723 272.355 541.233C273.485 541.523 274.605 541.873 275.725 542.183C278.215 542.873 280.575 542.513 282.795 541.223C285.005 539.943 286.735 538.143 288.265 536.143C291.575 531.813 293.895 526.943 296.005 521.963C297.985 517.293 299.695 512.533 300.435 507.473C300.765 505.203 300.825 502.933 300.345 500.673C299.765 497.943 298.405 495.703 296.155 494.053C293.065 491.793 289.615 490.473 285.745 490.583C284.435 490.623 283.145 491.003 281.835 491.223C282.625 489.083 285.085 487.413 287.695 487.533C292.705 487.773 297.155 489.473 300.785 493.033C302.265 494.483 303.105 496.283 303.485 498.303C304.255 502.373 303.995 506.423 302.915 510.383H302.925Z" fill="white" />
            <path id="Vector_17" d="M245.475 348.113C245.165 343.053 243.065 338.913 239.055 335.783C237.065 334.233 234.885 332.953 232.465 332.243C229.265 331.313 226.005 330.593 222.755 329.823C220.705 329.343 218.645 328.743 216.565 328.553C211.545 328.113 207.155 329.853 203.305 333.003C200.025 335.683 197.485 338.993 195.355 342.603C191.345 349.413 188.435 356.683 186.585 364.363C185.645 368.263 185.145 372.233 185.775 376.273C186.365 380.083 187.845 383.413 190.645 386.103C194.125 389.443 198.355 391.313 202.985 392.373C206.015 393.063 209.065 393.673 212.105 394.343C217.255 395.463 222.055 394.783 226.365 391.573C229.355 389.343 231.715 386.543 233.705 383.423C238.165 376.433 241.405 368.873 243.795 360.953C244.845 357.483 245.595 353.943 245.485 350.283C245.485 349.563 245.525 348.833 245.485 348.113H245.475ZM230.695 354.853C228.495 362.603 225.245 369.923 221.045 376.803C219.175 379.863 216.905 382.593 213.975 384.733C210.955 386.953 207.645 387.873 203.905 387.193C201.245 386.713 198.715 385.933 196.405 384.503C192.715 382.223 190.635 378.923 190.015 374.613C189.595 371.693 189.865 368.833 190.465 365.993C191.955 358.973 194.555 352.353 197.945 346.043C198.605 344.803 199.265 344.163 200.625 343.633C200.325 344.153 200.025 344.673 199.715 345.193C195.495 352.353 192.525 360.003 190.985 368.183C190.465 370.943 190.345 373.723 191.105 376.463C192.375 381.063 195.515 383.793 199.985 385.133C201.155 385.483 202.345 385.793 203.515 386.133C205.995 386.843 208.395 386.613 210.595 385.253C211.815 384.503 212.995 383.613 214.015 382.613C215.155 381.483 216.225 380.233 217.105 378.903C222.405 370.883 226.175 362.193 228.215 352.783C228.805 350.043 228.985 347.273 228.375 344.493C227.865 342.133 226.805 340.073 224.955 338.513C221.205 335.333 216.865 333.913 211.945 334.533C211.185 334.633 210.455 334.973 209.715 335.203C209.365 335.313 209.025 335.423 208.395 335.623C210.395 332.723 212.845 331.213 216.105 331.413C220.815 331.713 224.985 333.403 228.465 336.633C230.155 338.203 231.065 340.203 231.465 342.473C232.205 346.673 231.825 350.823 230.675 354.873L230.695 354.853Z" fill="white" />
            <path id="Vector_18" d="M496.595 151.803C496.115 140.483 493.935 129.393 490.595 118.543C484.675 99.3634 475.155 82.2034 461.585 67.3934C442.715 46.7934 419.725 33.0434 392.485 26.5534C386.405 25.1034 380.335 23.5634 374.155 22.6034C367.985 21.6434 361.725 21.1734 355.485 21.1234C351.635 21.0934 347.775 21.2234 343.935 21.6034C341.865 21.8034 339.805 22.0634 337.745 22.3734C333.635 23.0134 329.565 23.8834 325.555 24.9834C324.545 25.2634 323.545 25.5434 322.545 25.8534C306.595 30.6834 292.415 38.7334 279.635 49.3634C267.885 59.1334 258.165 70.6634 249.845 83.4334C241.465 96.2934 234.395 109.853 227.995 123.783C221.305 138.363 215.355 153.243 209.575 168.203C202.735 185.903 195.725 203.543 188.415 221.053C179.145 243.243 169.965 265.453 160.745 287.663C152.465 307.603 144.175 327.543 135.895 347.483C126.135 370.973 116.385 394.463 106.625 417.943C97.785 439.223 88.945 460.493 80.1049 481.773C75.5549 492.723 70.975 503.653 66.465 514.623C61.115 527.643 55.845 540.693 50.505 553.723C49.665 555.783 48.715 557.803 47.715 559.793C45.815 563.563 44.625 567.533 44.055 571.703C43.975 572.263 44.155 572.993 43.325 573.213V578.563C44.085 578.733 43.915 579.393 44.045 579.903C44.525 581.843 44.885 583.823 45.505 585.713C47.335 591.233 50.985 595.453 55.385 599.113C59.415 602.463 64.045 604.773 68.805 606.823C81.935 612.493 95.075 618.133 108.255 623.693C129.475 632.653 150.725 641.553 171.975 650.443C190.815 658.323 209.665 666.163 228.515 674.023C234.625 676.573 240.735 679.123 246.855 681.663C249.535 682.773 252.305 683.573 255.155 684.113C258.925 684.833 262.645 685.813 266.425 686.403C273.675 687.533 280.735 686.643 287.545 683.883C296.465 680.263 302.745 673.973 306.425 665.093C335.025 596.263 363.615 527.423 392.215 458.593C402.215 434.533 412.165 410.463 422.255 386.443C424.905 380.143 426.975 373.723 428.035 366.973C429.025 360.733 429.175 354.463 428.645 348.173C427.785 337.963 424.695 328.323 420.985 318.883C414.875 303.333 406.265 289.183 396.395 275.763C388.865 265.523 380.775 255.743 372.135 246.423C362.365 235.893 352.415 225.523 342.545 215.093C337.875 210.163 333.175 205.253 329.155 199.753C325.045 194.133 321.745 188.103 320.155 181.263C318.845 175.623 318.625 169.953 319.455 164.193C321.125 152.683 326.135 142.823 333.825 134.243C340.185 127.143 347.835 121.913 356.925 118.903C360.145 117.833 363.435 117.013 366.865 116.933C368.915 116.883 370.975 116.663 373.005 116.813C375.615 117.013 377.855 118.393 380.065 119.663C386.625 123.413 391.495 128.843 395.145 135.373C399.235 142.673 401.395 150.543 402.045 158.893C402.385 163.193 402.035 167.443 401.715 171.713C401.455 175.203 401.215 178.703 400.925 182.193C400.465 187.743 400.155 193.303 400.345 198.863C400.555 204.833 401.235 210.753 403.285 216.403C408.365 230.373 418.365 238.733 432.785 241.963C435.935 242.673 439.065 243.423 442.225 244.043C445.775 244.743 449.325 245.053 452.985 244.693C459.665 244.043 465.615 241.743 470.905 237.663C473.925 235.333 476.415 232.483 478.695 229.443C483.835 222.603 487.395 214.953 490.015 206.853C492.645 198.733 494.275 190.393 495.455 181.943C496.855 171.913 496.995 161.843 496.565 151.783L496.595 151.803ZM263.345 71.3734C268.065 65.3534 273.275 59.8034 278.985 54.7134C290.955 44.0334 304.365 35.7234 319.535 30.3634C328.775 27.1034 338.285 25.1334 348.065 24.4534C364.375 23.3234 380.755 25.6534 396.125 31.2034C407.145 35.1834 417.385 40.7534 426.215 48.5034C427.495 49.6234 428.765 50.7634 430.005 51.9334C430.665 52.5534 431.965 53.4434 432.335 54.3134C432.965 55.8134 430.645 54.5834 430.195 54.3034C428.645 53.3534 427.215 52.1534 425.755 51.0734C422.085 48.3534 418.415 45.6034 414.435 43.3334C407.565 39.4134 400.345 36.1134 392.875 33.5234C383.785 30.3834 374.475 28.2434 364.905 27.3534C338.415 24.8934 314.245 31.4234 292.295 46.3534C281.015 54.0234 271.295 63.3634 262.825 74.0334C262.255 74.7534 261.665 75.4434 261.085 76.1534C261.395 74.2834 262.265 72.7634 263.355 71.3734H263.345ZM155.385 342.423C158.735 333.143 163.185 324.453 169.455 316.773C175.065 309.893 181.765 304.393 190.005 300.903C197.605 297.683 205.535 296.793 213.725 297.383C219.445 297.803 224.975 298.923 230.225 301.223C234.965 303.303 239.735 305.323 244.155 308.073C251.205 312.463 257.255 317.873 261.485 325.113C265.665 332.273 267.515 340.023 267.235 348.303C267.225 348.633 267.185 348.953 267.155 349.413C266.855 346.673 266.695 344.073 266.285 341.503C264.715 331.663 260.445 323.233 253.105 316.403C243.245 307.233 231.795 301.103 218.565 298.503C207.935 296.413 197.865 298.203 188.345 303.313C178.715 308.473 171.495 316.163 165.585 325.183C162.765 329.483 160.505 334.053 159.285 339.113C158.695 341.533 157.605 343.833 156.875 346.223C154.625 353.583 153.575 361.113 154.025 368.813C154.675 380.053 158.745 389.853 166.875 397.733C177.975 408.493 191.395 414.343 206.725 415.713C213.915 416.353 220.955 415.293 227.685 412.553C233.395 410.223 238.215 406.573 242.725 402.453C248.705 396.983 253.485 390.593 257.335 383.483C257.595 383.013 257.885 382.553 258.155 382.093C258.225 382.123 258.285 382.153 258.355 382.193C258.225 382.533 258.125 382.893 257.975 383.223C253.775 391.943 248.385 399.793 241.075 406.213C233.825 412.583 225.505 416.793 215.915 418.103C206.165 419.433 196.575 418.683 187.425 414.723C182.625 412.643 177.845 410.503 173.425 407.663C166.775 403.383 161.115 398.123 157.015 391.293C153.425 385.313 151.475 378.823 150.855 371.893C149.945 361.683 151.985 351.943 155.425 342.433L155.385 342.423ZM261.535 356.853C259.175 370.113 254.065 382.223 246.085 393.073C241.445 399.393 235.805 404.633 228.775 408.233C223.925 410.723 218.785 412.173 213.325 412.683C210.355 412.963 207.445 412.843 204.515 412.573C203.745 412.503 202.965 412.353 202.235 412.103C194.235 409.283 186.785 405.483 180.485 399.693C173.335 393.113 169.015 385.023 167.845 375.333C167.595 373.293 167.535 371.233 167.385 369.183C167.405 361.553 169.125 354.263 171.665 347.153C175.045 337.693 179.615 328.883 186.285 321.293C192.295 314.453 199.485 309.413 208.375 306.983C211.775 306.053 215.255 305.633 218.745 305.503C222.375 305.363 225.915 305.893 229.345 307.273C235.785 309.863 241.935 312.923 247.365 317.303C255.415 323.803 260.445 332.063 261.875 342.393C262.545 347.233 262.375 352.063 261.515 356.853H261.535ZM328.795 348.413C329.035 348.233 329.365 348.153 329.695 348.013C330.125 348.753 329.925 349.273 329.425 349.723C329.005 350.093 328.555 350.423 328.115 350.753C296.345 374.663 264.575 398.583 232.805 422.493C194.895 451.023 156.985 479.563 119.075 508.103C118.605 508.453 118.165 508.853 117.705 509.223C117.905 509.433 117.985 509.583 118.045 509.573C120.015 509.393 121.745 510.163 123.495 510.903C133.145 514.973 142.795 519.023 152.445 523.073C153.575 523.543 154.735 523.953 155.215 525.453C155.885 524.993 156.435 524.633 156.955 524.243C187.415 501.273 217.865 478.293 248.325 455.323C273.045 436.673 297.775 418.043 322.495 399.393C336.765 388.633 351.035 377.853 365.305 367.093C365.925 366.623 366.535 366.133 367.195 365.713C368.045 365.173 368.965 364.913 370.405 365.143C369.575 365.833 369.055 366.303 368.495 366.723C352.265 378.963 336.035 391.203 319.805 403.443C267.655 442.783 215.495 482.113 163.345 521.453C161.035 523.193 158.675 524.893 156.425 526.703C155.375 527.543 154.475 527.643 153.235 527.113C141.345 522.063 129.435 517.073 117.525 512.063C116.365 511.573 115.215 511.053 114.065 510.543L114.025 510.023C185.605 456.153 257.195 402.273 328.785 348.403L328.795 348.413ZM338.335 359.093C339.295 358.343 340.105 358.263 341.215 358.733C346.835 361.153 352.495 363.493 358.135 365.873C358.575 366.063 358.985 366.313 359.665 366.673C358.915 367.313 358.365 367.823 357.775 368.273C340.085 381.623 322.395 394.963 304.695 408.303C256.015 445.013 207.335 481.723 158.695 518.483C157.195 519.623 156.025 519.733 154.355 518.993C149.115 516.663 143.805 514.513 138.515 512.283C137.915 512.033 137.325 511.723 136.385 511.273C137.155 510.623 137.635 510.183 138.155 509.793C156.305 496.133 174.455 482.473 192.615 468.813C237.905 434.723 283.195 400.633 328.485 366.543C331.775 364.063 335.095 361.613 338.345 359.083L338.335 359.093ZM304.525 458.833C303.845 458.613 303.165 458.393 302.495 458.163C298.275 456.723 294.045 455.323 289.625 454.623C275.885 452.433 263.545 455.693 252.585 464.213C245.805 469.483 240.535 476.053 236.265 483.463C233.865 487.623 231.775 491.953 230.265 496.493C227.245 505.583 225.225 514.893 225.945 524.543C226.815 536.203 231.305 546.263 239.795 554.463C249.355 563.683 260.735 569.163 273.755 571.513C289.665 574.383 303.235 569.803 314.855 558.873C321.465 552.643 326.615 545.313 330.235 537.013C333.585 529.363 336.555 521.553 337.875 513.223C338.815 507.293 338.965 501.363 337.905 495.433C336.355 486.783 332.515 479.323 326.245 473.153C324.505 471.433 322.665 469.813 320.865 468.153C320.505 467.823 320.125 467.503 319.875 466.973C320.125 467.083 320.415 467.143 320.635 467.293C331.395 475.263 337.875 485.723 339.205 499.183C340.025 507.413 338.765 515.413 336.405 523.253C333.165 533.993 328.535 544.083 321.725 553.073C316.445 560.053 310.105 565.813 302.235 569.773C296.495 572.653 290.415 574.283 283.985 574.713C274.455 575.353 265.385 573.813 256.705 569.723C251.855 567.443 247.065 565.113 242.695 561.983C233.905 555.693 227.565 547.593 224.545 537.103C222.735 530.813 222.235 524.403 222.965 517.913C224.875 501.043 231.225 485.983 241.745 472.713C247.895 464.963 255.585 459.193 265.015 455.943C271.195 453.813 277.565 453.123 284.095 453.433C290.565 453.733 296.785 454.983 302.725 457.593C303.375 457.883 304.015 458.193 304.655 458.503L304.525 458.863V458.833ZM319.235 473.313C327.535 479.923 332.605 488.393 334.025 498.963C334.775 504.593 334.335 510.193 333.115 515.703C330.255 528.583 325.125 540.463 316.915 550.883C311.585 557.653 305.075 562.943 297.005 566.153C290.905 568.583 284.545 569.343 278.015 568.953C275.195 568.783 272.605 567.753 270.045 566.663C263.225 563.773 256.875 560.143 251.555 554.913C245.195 548.653 241.345 541.143 240.015 532.283C238.935 525.103 239.645 518.063 241.405 511.123C244.235 499.943 248.945 489.613 255.945 480.393C258.855 476.563 262.205 473.143 266.065 470.263C273.615 464.633 282.085 461.673 292.305 461.783C295.305 461.473 298.825 462.333 302.265 463.783C308.295 466.313 314.095 469.213 319.235 473.313ZM105.415 432.873C105.495 432.913 105.585 432.943 105.665 432.983C105.515 433.253 105.355 433.523 105.205 433.793C105.275 433.493 105.345 433.183 105.425 432.883L105.415 432.873ZM60.745 539.853C63.385 533.053 65.905 526.203 68.725 519.483C79.575 493.663 90.5149 467.883 101.435 442.093C101.715 441.443 102.125 440.843 102.475 440.223C102.215 441.063 102.015 441.933 101.675 442.743C91.7549 466.713 81.815 490.683 71.875 514.643C68.415 522.973 64.925 531.293 61.445 539.613C61.145 540.323 60.805 541.013 60.205 541.633C60.375 541.033 60.515 540.423 60.735 539.843L60.745 539.853ZM406.315 176.783C406.285 177.293 406.085 177.793 405.955 178.293C405.815 178.293 405.675 178.293 405.525 178.283C405.435 177.713 405.275 177.143 405.255 176.563C405.195 174.893 405.205 173.223 405.145 171.553C404.925 165.773 404.855 159.973 404.405 154.203C403.915 147.863 402.785 141.593 400.155 135.733C394.255 122.603 384.095 114.573 370.145 111.573C357.865 108.923 346.335 111.633 335.655 117.883C320.335 126.843 311.265 140.203 308.545 157.753C306.785 169.053 308.055 180.053 312.375 190.683C313.325 193.023 314.625 195.153 316.105 197.183C320.075 202.643 324.415 207.783 328.955 212.783C340.005 224.943 351.095 237.063 362.045 249.303C369.805 257.983 376.955 267.163 383.905 276.503C388.835 283.123 393.275 290.063 397.805 296.943C401.125 301.983 403.555 307.503 406.035 312.983C410.045 321.853 412.825 331.113 414.505 340.703C415.865 348.423 415.665 356.103 414.235 363.783C412.585 372.633 409.805 381.133 406.335 389.423C394.665 417.373 383.055 445.333 371.285 473.243C364.625 489.043 357.725 504.743 350.905 520.473C343.265 538.103 336.195 555.963 329.085 573.813C321.175 593.673 312.985 613.423 304.945 633.223C302.615 638.943 300.495 644.763 298.015 650.413C296.255 654.433 294.195 658.333 292.015 662.143C289.135 667.173 285.255 671.393 280.605 674.883C276.555 677.923 271.975 679.633 266.955 680.303C260.665 681.143 254.625 680.253 248.825 677.793C234.015 671.513 219.245 665.133 204.435 658.853C173.065 645.573 141.675 632.333 110.285 619.093C100.745 615.063 91.165 611.133 81.665 607.033C77.125 605.073 72.745 602.723 68.215 600.723C64.835 599.233 61.785 597.233 58.765 595.153C55.415 592.843 52.995 589.623 50.285 586.683C50.145 586.533 50.095 586.303 49.995 586.113C50.085 586.003 50.185 585.903 50.275 585.793C50.645 586.073 51.065 586.303 51.365 586.643C56.745 592.773 63.355 597.283 70.585 600.853C76.265 603.663 82.0949 606.193 87.9549 608.613C114.045 619.363 140.175 630.003 166.275 640.733C184.085 648.053 201.865 655.443 219.665 662.813C227.735 666.153 235.785 669.573 243.885 672.833C248.175 674.563 252.615 675.833 257.215 676.483C266.505 677.783 274.785 675.823 281.695 669.153C285.875 665.123 289.245 660.483 291.755 655.303C294.325 650.003 296.635 644.563 298.935 639.133C305.185 624.363 311.455 609.613 317.545 594.783C324.285 578.353 330.705 561.793 337.495 545.383C346.115 524.553 355.025 503.843 363.675 483.023C373.225 460.043 382.635 437.013 392.085 413.993C396.295 403.743 400.515 393.503 404.595 383.203C407.115 376.833 408.965 370.243 410.265 363.493C412.715 350.743 411.575 338.273 406.955 326.223C399.385 306.463 389.245 288.063 376.525 271.133C370.065 262.533 362.925 254.493 355.735 246.503C348.315 238.263 340.555 230.363 332.395 222.853C329.285 219.993 326.335 216.943 323.445 213.853C321.085 211.333 318.885 208.673 316.695 206.003C311.795 200.053 308.345 193.233 305.495 186.143C302.075 177.613 301.455 168.693 303.115 159.693C305.305 147.823 309.965 136.953 317.725 127.673C326.615 117.043 338.065 110.493 351.745 108.083C361.765 106.323 371.535 107.413 380.745 111.823C393.455 117.893 401.325 127.983 404.675 141.623C405.955 146.833 406.345 152.173 406.915 157.483C407.605 163.953 406.705 170.373 406.315 176.813V176.783ZM483.085 161.933C482.615 177.563 480.255 192.863 474.305 207.433C473.025 210.573 471.445 213.593 469.885 216.603C468.125 220.023 465.425 222.693 462.615 225.253C462.395 225.453 462.095 225.563 461.835 225.723C461.775 225.663 461.715 225.613 461.665 225.553C461.805 225.283 461.915 224.983 462.095 224.753C468.145 217.113 471.885 208.353 474.555 199.083C477.115 190.233 478.555 181.173 479.375 172.003C479.865 166.563 480.125 161.123 480.015 155.663C479.765 143.413 477.955 131.393 474.505 119.633C471.145 108.193 466.305 97.4234 460.105 87.2334C456.925 82.0034 453.485 76.8834 449.305 72.3934C449.185 72.2634 449.055 72.1234 448.925 71.9934C448.455 71.4934 447.955 70.9734 447.735 70.3234C447.695 70.2134 447.675 70.0834 447.755 70.0034C447.855 69.9034 448.025 69.9634 448.145 70.0234C449.065 70.5434 449.795 71.3734 450.575 72.0834C455.015 76.1734 459.535 80.3734 463.125 85.2434C466.605 89.9534 469.125 95.2934 471.485 100.633C473.825 105.903 475.795 111.323 477.395 116.853C479.015 122.413 480.265 128.083 481.175 133.813C481.275 134.423 481.365 135.023 481.455 135.633C482.725 144.353 483.335 153.123 483.065 161.933H483.085Z" fill="white" />
        </g>
        <g id="text">
            <path id="Vector_19" d="M539.815 367.353C570.965 367.353 594.855 387.613 594.855 422.533C594.855 457.453 571.665 472.403 556.295 474.083L601.555 551.753H562.445L521.375 476.743H503.495V551.753H468.855V367.363H539.815V367.353ZM527.385 452.143C544.985 452.143 559.235 444.323 559.235 423.503C559.235 402.683 545.265 395.143 527.665 395.143H503.495V452.133H527.385V452.143Z" fill="white" />
            <path id="Vector_20" d="M736.895 367.353V397.943H657.135V444.463H735.785V474.213H657.135V521.153H736.895V551.743H622.625V367.353H736.895Z" fill="white" />
            <path id="Vector_21" d="M815.515 367.353C846.385 367.353 874.325 378.533 874.325 412.193C874.325 434.823 859.375 451.303 844.845 454.243C861.745 456.203 882.425 469.893 882.425 499.503C882.425 529.113 862.305 551.743 824.175 551.743H756.985V367.353H815.515ZM813.975 443.763C831.295 443.763 839.815 432.313 839.815 418.343C839.815 400.883 828.775 395.433 811.595 395.433H791.475V443.763H813.965H813.975ZM817.045 523.663C838.415 523.663 845.965 512.343 845.965 496.843C845.965 480.363 835.065 471.283 815.935 471.283H791.485V523.663H817.045Z" fill="white" />
            <path id="Vector_22" d="M983.475 363.993C1037.12 363.993 1076.78 405.623 1076.78 459.403C1076.78 513.183 1038.1 555.093 983.475 555.093C928.855 555.093 889.885 513.323 889.885 459.403C889.885 405.483 930.395 363.993 983.475 363.993ZM983.475 522.403C1017.29 522.403 1040.89 494.743 1040.89 459.403C1040.89 424.063 1017.28 396.543 983.475 396.543C949.675 396.543 926.065 424.203 926.065 459.403C926.065 494.603 949.675 522.403 983.475 522.403Z" fill="white" />
            <path id="Vector_23" d="M1181.55 363.993C1235.19 363.993 1274.86 405.623 1274.86 459.403C1274.86 513.183 1236.17 555.093 1181.55 555.093C1126.93 555.093 1087.96 513.323 1087.96 459.403C1087.96 405.483 1128.47 363.993 1181.55 363.993ZM1181.55 522.403C1215.36 522.403 1238.96 494.743 1238.96 459.403C1238.96 424.063 1215.35 396.543 1181.55 396.543C1147.75 396.543 1124.15 424.203 1124.15 459.403C1124.15 494.603 1147.75 522.403 1181.55 522.403Z" fill="white" />
            <path id="Vector_24" d="M1424.01 551.743H1382.52L1321.05 469.323V551.743H1286.41V367.353H1321.05V446.423L1378.04 367.353H1417.43L1351.91 457.313L1423.99 551.743H1424.01Z" fill="white" />
            <path id="Vector_25" d="M1472.61 367.353V551.743H1437.83V367.353H1472.61Z" fill="white" />
            <path id="Vector_26" d="M1594.73 367.353V397.943H1526.84V444.043H1589.84V474.633H1526.84V551.743H1492.34V367.353H1594.73Z" fill="white" />
            <path id="Vector_27" d="M1606.29 367.353H1648.34L1686.62 445.583L1724.77 367.353H1766.67L1704.09 485.393V551.743H1669.31V485.393L1606.31 367.353H1606.29Z" fill="white" />
        </g>
    </g>

    <defs>
        <style>
              #logo {
                transform-box: fill-box;
                transform-origin: 416px 208px;
                animation: rotation 0.75s ease-in-out infinite alternate;
              }
              @keyframes rotation {
                0% {
                  transform: rotate(-1deg);
                }
                100% {
                  transform: rotate(1deg);
                }
              }
        </style>
    </defs>
</svg>