<svg width="100%" min-height="0" viewBox="0 0 614 868" fill="none"
    xmlns="http://www.w3.org/2000/svg">
    <g id="logo-white">
        <g id="logo">
            <path id="Vector" d="M32.4353 727.058C32.8953 727.408 33.4253 727.688 33.8053 728.118C40.5453 735.798 48.8353 741.458 57.8953 745.928C65.0153 749.448 72.3253 752.618 79.6653 755.648C112.355 769.118 145.105 782.458 177.815 795.898C200.135 805.068 222.415 814.338 244.715 823.568C254.835 827.758 264.915 832.038 275.065 836.128C280.435 838.298 285.995 839.898 291.765 840.698C303.405 842.328 313.785 839.868 322.445 831.518C327.685 826.468 331.905 820.658 335.055 814.158C338.275 807.508 341.175 800.698 344.055 793.898C351.885 775.398 359.745 756.908 367.375 738.318C375.825 717.728 383.875 696.978 392.375 676.418C403.175 650.308 414.345 624.358 425.185 598.268C437.155 569.478 448.945 540.608 460.785 511.758C466.055 498.918 471.345 486.078 476.455 473.178C479.615 465.188 481.935 456.938 483.555 448.478C486.625 432.498 485.195 416.878 479.415 401.778C469.925 377.008 457.225 353.958 441.285 332.738C433.185 321.968 424.245 311.888 415.235 301.868C405.935 291.538 396.215 281.648 385.985 272.228C382.085 268.638 378.395 264.818 374.775 260.948C371.825 257.788 369.065 254.448 366.315 251.118C360.175 243.658 355.855 235.118 352.285 226.228C347.995 215.538 347.225 204.358 349.295 193.088C352.035 178.218 357.875 164.598 367.605 152.958C378.745 139.628 393.095 131.438 410.235 128.418C422.785 126.208 435.035 127.588 446.575 133.098C462.505 140.708 472.355 153.348 476.565 170.438C478.165 176.968 478.665 183.648 479.365 190.308C480.225 198.418 479.105 206.468 478.615 214.528C478.575 215.168 478.325 215.788 478.165 216.428C477.985 216.428 477.805 216.418 477.635 216.408C477.515 215.688 477.325 214.978 477.295 214.258C477.215 212.168 477.235 210.068 477.155 207.978C476.875 200.728 476.785 193.468 476.225 186.238C475.605 178.288 474.195 170.438 470.905 163.098C463.515 146.648 450.785 136.588 433.295 132.818C417.905 129.498 403.465 132.888 390.075 140.728C370.885 151.958 359.515 168.698 356.095 190.688C353.895 204.848 355.475 218.638 360.885 231.948C362.075 234.888 363.705 237.548 365.555 240.098C370.525 246.938 375.965 253.388 381.655 259.638C395.495 274.868 409.395 290.058 423.115 305.408C432.835 316.288 441.795 327.798 450.515 339.498C456.695 347.798 462.265 356.488 467.935 365.108C472.095 371.428 475.145 378.348 478.245 385.208C483.265 396.318 486.745 407.928 488.865 419.948C490.565 429.618 490.315 439.248 488.525 448.868C486.455 459.958 482.965 470.608 478.635 480.998C464.015 516.018 449.455 551.068 434.715 586.038C426.365 605.838 417.715 625.508 409.175 645.218C399.605 667.308 390.745 689.688 381.835 712.058C371.915 736.938 361.665 761.688 351.585 786.508C348.675 793.678 346.015 800.968 342.905 808.048C340.695 813.078 338.115 817.978 335.385 822.748C331.775 829.048 326.915 834.338 321.095 838.708C316.015 842.518 310.275 844.658 303.985 845.498C296.105 846.548 288.525 845.428 281.265 842.358C262.705 834.488 244.205 826.488 225.635 818.628C186.325 801.988 146.985 785.398 107.665 768.798C95.7153 763.758 83.7053 758.828 71.7953 753.688C66.0953 751.228 60.6153 748.288 54.9353 745.778C50.6953 743.908 46.8853 741.398 43.0953 738.788C38.8953 735.898 35.8653 731.858 32.4653 728.178C32.2953 727.988 32.2253 727.698 32.1053 727.458L32.4553 727.058H32.4353Z" fill="#000E3C" />
            <path id="Vector_2" d="M112.345 632.118C202.045 564.608 291.755 497.098 381.465 429.598C381.765 429.368 382.175 429.278 382.585 429.098C383.115 430.018 382.865 430.678 382.245 431.238C381.725 431.698 381.155 432.108 380.605 432.528C340.795 462.498 300.985 492.458 261.175 522.428C213.665 558.188 166.165 593.948 118.665 629.708C118.075 630.148 117.525 630.638 116.955 631.108C117.205 631.368 117.305 631.558 117.385 631.548C119.855 631.318 122.015 632.288 124.215 633.218C136.305 638.318 148.395 643.398 160.495 648.478C161.915 649.068 163.365 649.578 163.965 651.458C164.805 650.878 165.495 650.438 166.145 649.948C204.315 621.158 242.475 592.368 280.635 563.588C311.615 540.228 342.595 516.868 373.575 493.508C391.465 480.018 409.335 466.518 427.225 453.028C428.005 452.438 428.775 451.828 429.595 451.298C430.655 450.618 431.815 450.288 433.625 450.588C432.585 451.458 431.935 452.048 431.235 452.568C410.905 467.908 390.565 483.248 370.225 498.578C304.875 547.868 239.515 597.168 174.165 646.458C171.265 648.648 168.315 650.758 165.495 653.038C164.175 654.098 163.045 654.208 161.495 653.548C146.595 647.228 131.665 640.968 116.745 634.688C115.295 634.078 113.855 633.418 112.405 632.778C112.385 632.558 112.375 632.338 112.355 632.118H112.345Z" fill="#000E3C" />
            <path id="Vector_3" d="M293.155 471.918C292.995 472.348 292.875 472.798 292.675 473.208C287.405 484.128 280.655 493.968 271.495 502.018C262.415 509.998 251.985 515.278 239.975 516.918C227.755 518.588 215.745 517.648 204.265 512.688C198.245 510.088 192.265 507.408 186.725 503.838C178.395 498.468 171.295 491.878 166.165 483.318C161.675 475.828 159.215 467.688 158.445 458.998C157.305 446.208 159.865 433.998 164.165 422.078C168.365 410.458 173.945 399.558 181.795 389.928C188.835 381.298 197.215 374.408 207.545 370.038C217.065 365.998 227.005 364.888 237.265 365.628C244.435 366.148 251.365 367.558 257.945 370.438C263.885 373.038 269.865 375.578 275.395 379.018C284.235 384.518 291.815 391.298 297.115 400.378C302.355 409.348 304.675 419.068 304.315 429.438C304.305 429.848 304.255 430.258 304.205 430.828C303.835 427.398 303.625 424.138 303.115 420.918C301.155 408.588 295.795 398.028 286.595 389.468C274.245 377.978 259.895 370.298 243.315 367.038C229.995 364.418 217.375 366.668 205.445 373.058C193.375 379.528 184.325 389.158 176.915 400.458C173.385 405.848 170.555 411.578 169.015 417.918C168.275 420.958 166.905 423.828 165.995 426.828C163.175 436.048 161.865 445.488 162.425 455.128C163.245 469.218 168.345 481.498 178.525 491.368C192.425 504.848 209.245 512.178 228.465 513.898C237.475 514.708 246.295 513.378 254.725 509.938C261.875 507.028 267.925 502.448 273.565 497.288C281.055 490.438 287.045 482.428 291.875 473.518C292.195 472.928 292.565 472.358 292.905 471.768C292.985 471.808 293.075 471.848 293.155 471.888V471.918Z" fill="#000E3C" />
            <path id="Vector_4" d="M351.065 567.958C350.215 567.678 349.365 567.408 348.525 567.118C343.245 565.308 337.945 563.568 332.395 562.678C315.175 559.928 299.705 564.018 285.985 574.688C277.495 581.288 270.885 589.518 265.535 598.808C262.525 604.028 259.915 609.448 258.015 615.138C254.225 626.528 251.695 638.198 252.595 650.288C253.685 664.908 259.315 677.508 269.955 687.778C281.925 699.338 296.195 706.198 312.505 709.138C332.445 712.738 349.455 706.998 364.005 693.298C372.285 685.498 378.735 676.308 383.285 665.908C387.475 656.318 391.205 646.528 392.855 636.088C394.035 628.648 394.225 621.228 392.895 613.798C390.955 602.958 386.135 593.618 378.285 585.878C376.105 583.728 373.795 581.698 371.535 579.618C371.085 579.198 370.615 578.808 370.285 578.138C370.605 578.268 370.965 578.348 371.235 578.548C384.715 588.538 392.835 601.638 394.505 618.518C395.525 628.838 393.955 638.858 390.995 648.678C386.935 662.138 381.125 674.778 372.605 686.048C365.985 694.798 358.045 702.018 348.175 706.968C340.975 710.578 333.365 712.618 325.305 713.158C313.365 713.958 301.995 712.028 291.125 706.898C285.055 704.038 279.045 701.118 273.565 697.198C262.545 689.308 254.605 679.168 250.815 666.028C248.545 658.148 247.915 650.108 248.835 641.978C251.225 620.838 259.185 601.958 272.375 585.338C280.075 575.628 289.725 568.398 301.535 564.318C309.275 561.648 317.265 560.788 325.445 561.168C333.555 561.538 341.355 563.118 348.795 566.378C349.615 566.738 350.415 567.138 351.215 567.518C351.155 567.668 351.105 567.818 351.045 567.968L351.065 567.958Z" fill="#000E3C" />
            <path id="Vector_5" d="M547.955 275.638C548.135 275.298 548.265 274.928 548.505 274.638C556.085 265.068 560.775 254.088 564.125 242.468C567.325 231.378 569.145 220.028 570.175 208.538C570.785 201.728 571.115 194.908 570.975 188.068C570.665 172.718 568.395 157.658 564.075 142.918C559.865 128.578 553.805 115.088 546.035 102.318C541.735 95.258 536.775 88.728 531.535 82.368C531.055 81.788 530.585 81.188 530.295 80.338C530.645 80.568 531.035 80.748 531.335 81.038C536.065 85.578 540.855 90.058 545.465 94.728C548.045 97.338 550.365 100.168 552.255 103.398C563.075 121.898 569.705 141.818 572.795 162.968C574.395 173.898 575.145 184.888 574.815 195.928C574.225 215.518 571.265 234.678 563.815 252.938C562.215 256.868 560.235 260.648 558.285 264.428C556.075 268.708 552.705 272.068 549.185 275.268C548.905 275.518 548.535 275.658 548.205 275.858C548.135 275.788 548.065 275.718 547.985 275.648L547.955 275.638Z" fill="#000E3C" />
            <path id="Vector_6" d="M296.595 88.4281C296.975 86.0881 298.075 84.1881 299.445 82.4381C305.355 74.8981 311.885 67.9381 319.035 61.5581C334.045 48.1681 350.845 37.7681 369.845 31.0481C381.415 26.9581 393.335 24.4881 405.595 23.6481C425.645 22.2581 445.795 25.0381 464.745 31.7181C480.135 37.1481 494.265 44.4281 505.885 56.0781C507.795 57.9881 510.465 60.1881 511.735 62.5581C511.205 62.5881 510.645 62.1481 510.155 61.7581C509.195 60.9981 508.225 60.2581 507.245 59.5181C505.305 58.0481 503.325 56.6181 501.325 55.2381C497.255 52.4181 493.075 49.7681 488.785 47.3181C480.175 42.3881 471.115 38.2481 461.725 35.0081C450.335 31.0781 438.665 28.3981 426.675 27.2781C393.485 24.1981 363.185 32.3781 335.685 51.0881C321.555 60.6981 309.375 72.4081 298.755 85.7781C298.045 86.6781 297.305 87.5481 296.575 88.4381L296.595 88.4281Z" fill="#000E3C" />
            <path id="Vector_7" d="M97.8753 544.638C97.5453 545.698 97.2953 546.788 96.8753 547.808C84.4353 577.848 71.9953 607.878 59.5353 637.908C55.2053 648.348 50.8253 658.768 46.4653 669.198C46.0953 670.088 45.6653 670.958 44.9153 671.728C45.1353 670.978 45.2953 670.208 45.5853 669.488C48.8953 660.968 52.0553 652.388 55.5853 643.968C69.1753 611.618 82.8953 579.308 96.5753 546.998C96.9253 546.178 97.4453 545.428 97.8753 544.648V544.638Z" fill="white" />
            <path id="Vector_8" d="M518.375 289.468C516.105 290.208 513.885 290.258 511.685 289.768C504.335 288.138 497.755 284.888 491.965 280.068C490.655 278.978 489.455 277.748 489.025 275.888C497.145 284.028 506.885 288.588 518.365 289.468H518.375Z" fill="white" />
            <path id="Vector_9" d="M99.9553 539.618C99.2653 541.298 98.5653 542.968 97.8753 544.648C98.5753 542.978 99.2853 541.318 99.9853 539.648L99.9553 539.628V539.618Z" fill="white" />
            <path id="Vector_10" d="M99.9853 539.638L101.245 536.718L101.215 536.688C100.795 537.658 100.375 538.638 99.9553 539.608L99.9853 539.628V539.638Z" fill="white" />
            <path id="Vector_11" d="M104.905 527.938C104.885 527.818 104.865 527.708 104.865 527.608C104.865 527.558 104.945 527.518 104.985 527.468C105.045 527.538 105.165 527.638 105.145 527.668C105.085 527.768 104.985 527.848 104.895 527.948L104.905 527.938Z" fill="white" />
            <path id="Vector_12" d="M103.145 532.528C103.035 532.698 102.935 532.868 102.825 533.038C102.765 532.998 102.695 532.948 102.635 532.908C102.745 532.738 102.845 532.568 102.955 532.398C103.015 532.438 103.085 532.488 103.145 532.528Z" fill="white" />
            <path id="Vector_13" d="M101.245 536.718C101.345 536.288 101.445 535.858 101.545 535.438L101.855 535.568C101.635 535.938 101.425 536.318 101.205 536.688L101.235 536.718H101.245Z" fill="white" />
            <path id="Vector_14" d="M219.995 420.978C219.615 421.628 219.235 422.278 218.855 422.928C213.565 431.908 209.835 441.478 207.915 451.728C207.265 455.178 207.115 458.668 208.055 462.108C209.645 467.878 213.585 471.288 219.185 472.968C220.655 473.408 222.135 473.798 223.615 474.218C226.725 475.108 229.735 474.818 232.485 473.118C234.015 472.168 235.495 471.068 236.775 469.808C238.205 468.398 239.545 466.828 240.645 465.158C247.285 455.108 252.005 444.218 254.575 432.428C255.315 428.998 255.535 425.528 254.775 422.038C254.135 419.088 252.805 416.498 250.495 414.538C245.795 410.558 240.365 408.778 234.195 409.548C233.245 409.668 232.335 410.098 231.405 410.388C230.965 410.528 230.535 410.668 229.755 410.918C232.265 407.278 235.325 405.388 239.415 405.638C245.315 406.008 250.545 408.128 254.905 412.178C257.025 414.148 258.165 416.658 258.665 419.488C259.585 424.748 259.115 429.948 257.675 435.028C254.915 444.748 250.845 453.908 245.585 462.538C243.245 466.378 240.395 469.788 236.725 472.478C232.935 475.258 228.785 476.418 224.105 475.568C220.775 474.958 217.595 473.988 214.705 472.198C210.085 469.338 207.475 465.198 206.695 459.808C206.165 456.148 206.505 452.568 207.255 448.998C209.125 440.198 212.385 431.908 216.625 423.998C217.455 422.448 218.275 421.648 219.985 420.968L219.995 420.978Z" fill="#000E3C" />
            <path id="Vector_15" d="M309.865 617.498C309.555 618.088 309.255 618.688 308.925 619.268C304.245 627.358 300.905 635.978 298.805 645.078C298.075 648.218 297.845 651.418 298.035 654.638C298.395 660.878 302.385 666.728 309.865 668.618C311.285 668.978 312.685 669.418 314.095 669.818C317.225 670.688 320.165 670.228 322.955 668.608C325.725 667.008 327.885 664.748 329.805 662.238C333.945 656.818 336.865 650.708 339.505 644.468C341.985 638.618 344.135 632.648 345.055 626.318C345.475 623.478 345.545 620.628 344.945 617.788C344.215 614.368 342.515 611.558 339.695 609.498C335.825 606.668 331.495 605.008 326.645 605.148C325.005 605.198 323.385 605.668 321.745 605.948C322.735 603.268 325.825 601.168 329.095 601.328C335.365 601.628 340.945 603.758 345.495 608.228C347.345 610.048 348.405 612.298 348.885 614.828C349.855 619.928 349.525 625.008 348.175 629.958C345.295 640.528 340.905 650.448 334.975 659.678C332.965 662.808 330.485 665.538 327.485 667.788C323.035 671.118 318.205 672.418 312.715 670.968C309.375 670.088 306.195 668.938 303.415 666.828C300.605 664.678 298.675 661.938 297.815 658.488C296.765 654.298 296.645 650.048 297.415 645.818C299.005 637.018 302.245 628.798 306.335 620.888C307.105 619.408 308.295 618.298 309.525 617.248C309.635 617.338 309.755 617.418 309.865 617.508V617.498Z" fill="#000E3C" />
            <path id="Vector_16" d="M353.985 604.028C351.235 602.628 348.345 601.648 345.335 600.968C341.805 600.158 338.265 599.398 334.755 598.498C327.285 596.598 320.555 598.108 314.465 602.728C311.095 605.278 308.345 608.418 305.955 611.878C300.405 619.948 296.755 628.888 293.895 638.198C292.095 644.038 290.985 649.978 291.505 656.108C291.935 661.268 293.735 665.858 297.465 669.578C301.745 673.848 307.015 676.268 312.805 677.638C316.735 678.558 320.715 679.248 324.635 680.228C331.305 681.888 337.345 680.648 342.805 676.558C347.115 673.328 350.295 669.088 353.035 664.518C357.705 656.698 361.255 648.378 364.015 639.718C365.555 634.858 366.645 629.888 366.625 625.498C366.695 615.238 362.465 608.358 353.995 604.048L353.985 604.028ZM348.165 629.938C345.285 640.508 340.895 650.428 334.965 659.658C332.955 662.788 330.475 665.518 327.475 667.768C323.025 671.098 318.195 672.398 312.705 670.948C309.365 670.068 306.185 668.918 303.405 666.808C300.595 664.658 298.665 661.918 297.805 658.468C296.755 654.278 296.635 650.028 297.405 645.798C298.995 636.998 302.235 628.778 306.325 620.868C307.095 619.388 308.285 618.278 309.515 617.228L309.855 617.488C309.545 618.078 309.245 618.678 308.915 619.258C304.235 627.348 300.895 635.968 298.795 645.068C298.065 648.208 297.835 651.408 298.025 654.628C298.385 660.868 302.375 666.718 309.855 668.608C311.275 668.968 312.675 669.408 314.085 669.808C317.215 670.678 320.155 670.218 322.945 668.598C325.715 666.998 327.875 664.738 329.795 662.228C333.935 656.808 336.855 650.698 339.495 644.458C341.975 638.608 344.125 632.638 345.045 626.308C345.465 623.468 345.535 620.618 344.935 617.778C344.205 614.358 342.505 611.548 339.685 609.488C335.815 606.658 331.485 604.998 326.635 605.138C324.995 605.188 323.375 605.658 321.735 605.938C322.725 603.258 325.815 601.158 329.085 601.318C335.355 601.618 340.935 603.748 345.485 608.218C347.335 610.038 348.395 612.288 348.875 614.818C349.845 619.918 349.515 624.998 348.165 629.948V629.938Z" fill="white" />
            <path id="Vector_17" d="M276.185 426.598C275.805 420.258 273.165 415.068 268.135 411.148C265.645 409.198 262.905 407.598 259.875 406.718C255.865 405.548 251.785 404.648 247.715 403.688C245.145 403.088 242.565 402.328 239.955 402.098C233.665 401.548 228.165 403.718 223.335 407.668C219.235 411.018 216.045 415.168 213.375 419.698C208.345 428.228 204.705 437.348 202.395 446.958C201.215 451.848 200.585 456.818 201.375 461.878C202.115 466.648 203.965 470.828 207.475 474.198C211.835 478.378 217.135 480.728 222.945 482.048C226.745 482.918 230.565 483.678 234.375 484.508C240.835 485.918 246.835 485.058 252.235 481.028C255.985 478.238 258.945 474.728 261.425 470.818C267.015 462.058 271.075 452.588 274.075 442.658C275.385 438.308 276.325 433.878 276.195 429.288C276.195 428.378 276.245 427.468 276.195 426.568L276.185 426.598ZM257.665 435.048C254.905 444.768 250.835 453.928 245.575 462.558C243.235 466.398 240.385 469.808 236.715 472.498C232.925 475.278 228.775 476.438 224.095 475.588C220.765 474.978 217.585 474.008 214.695 472.218C210.075 469.358 207.465 465.218 206.685 459.828C206.155 456.168 206.495 452.588 207.245 449.018C209.115 440.218 212.375 431.928 216.615 424.018C217.445 422.468 218.265 421.668 219.975 420.988C219.595 421.638 219.215 422.288 218.835 422.938C213.545 431.918 209.815 441.488 207.895 451.738C207.245 455.188 207.095 458.678 208.035 462.118C209.625 467.888 213.565 471.298 219.165 472.978C220.635 473.418 222.115 473.808 223.595 474.228C226.705 475.118 229.715 474.828 232.465 473.128C233.995 472.178 235.475 471.078 236.755 469.818C238.185 468.408 239.525 466.838 240.625 465.168C247.265 455.118 251.985 444.228 254.555 432.438C255.295 429.008 255.515 425.538 254.755 422.048C254.115 419.098 252.785 416.508 250.475 414.548C245.775 410.568 240.345 408.788 234.175 409.558C233.225 409.678 232.315 410.108 231.385 410.398C230.945 410.538 230.515 410.678 229.735 410.928C232.245 407.288 235.305 405.398 239.395 405.648C245.295 406.018 250.525 408.138 254.885 412.188C257.005 414.158 258.145 416.668 258.645 419.498C259.565 424.758 259.095 429.958 257.655 435.038L257.665 435.048Z" fill="white" />
            <path id="Vector_18" d="M590.865 180.598C590.255 166.408 587.535 152.508 583.345 138.918C575.925 114.888 563.995 93.378 546.995 74.818C523.345 48.998 494.535 31.768 460.405 23.648C452.785 21.838 445.185 19.898 437.435 18.698C429.705 17.498 421.865 16.908 414.045 16.848C409.215 16.808 404.385 16.968 399.575 17.448C396.985 17.698 394.395 18.018 391.815 18.418C386.665 19.218 381.565 20.308 376.545 21.688C375.285 22.028 374.025 22.398 372.775 22.778C352.785 28.828 335.015 38.918 319.005 52.238C304.285 64.488 292.095 78.938 281.675 94.938C271.175 111.048 262.315 128.048 254.295 145.508C245.905 163.778 238.455 182.428 231.215 201.168C222.645 223.358 213.865 245.448 204.695 267.398C193.085 295.198 181.575 323.038 170.015 350.868C159.635 375.858 149.255 400.848 138.865 425.838C126.635 455.268 114.415 484.708 102.185 514.138C91.1053 540.798 80.0253 567.468 68.9453 594.128C63.2453 607.848 57.5053 621.548 51.8553 635.288C45.1553 651.608 38.5453 667.958 31.8553 684.288C30.7953 686.868 29.6153 689.398 28.3653 691.888C25.9853 696.608 24.4853 701.588 23.7853 706.818C23.6953 707.518 23.9053 708.438 22.8753 708.718V715.418C23.8253 715.628 23.6153 716.458 23.7753 717.098C24.3753 719.528 24.8253 722.008 25.6053 724.378C27.9053 731.298 32.4653 736.588 37.9753 741.168C43.0253 745.368 48.8353 748.258 54.7953 750.838C71.2453 757.948 87.7153 765.008 104.225 771.978C130.825 783.198 157.445 794.358 184.075 805.498C207.685 815.378 231.315 825.198 254.935 835.048C262.595 838.238 270.245 841.438 277.915 844.618C281.275 846.008 284.745 847.008 288.315 847.688C293.035 848.588 297.695 849.828 302.435 850.558C311.515 851.978 320.365 850.858 328.895 847.398C340.075 842.858 347.935 834.988 352.555 823.858C388.385 737.608 424.215 651.348 460.055 565.098C472.585 534.948 485.065 504.788 497.705 474.688C501.025 466.798 503.615 458.748 504.955 450.298C506.195 442.478 506.385 434.628 505.725 426.738C504.645 413.948 500.775 401.868 496.125 390.038C488.465 370.558 477.685 352.828 465.315 336.008C455.875 323.178 445.735 310.918 434.915 299.248C422.675 286.048 410.205 273.058 397.825 259.988C391.975 253.808 386.085 247.658 381.045 240.758C375.895 233.708 371.765 226.168 369.765 217.588C368.125 210.518 367.845 203.418 368.895 196.198C370.985 181.778 377.265 169.418 386.905 158.668C394.885 149.768 404.465 143.218 415.855 139.448C419.895 138.108 424.015 137.078 428.305 136.978C430.875 136.918 433.455 136.638 436.005 136.828C439.275 137.078 442.085 138.808 444.855 140.398C453.075 145.098 459.175 151.898 463.755 160.088C468.875 169.238 471.585 179.098 472.405 189.558C472.825 194.948 472.385 200.278 471.995 205.618C471.665 209.998 471.375 214.378 471.005 218.748C470.425 225.698 470.035 232.668 470.285 239.638C470.545 247.118 471.395 254.538 473.975 261.618C480.345 279.128 492.875 289.598 510.935 293.648C514.875 294.528 518.805 295.468 522.765 296.248C527.215 297.118 531.665 297.518 536.255 297.068C544.625 296.248 552.085 293.368 558.705 288.258C562.495 285.338 565.605 281.768 568.465 277.968C574.915 269.398 579.365 259.808 582.645 249.658C585.935 239.478 587.985 229.028 589.465 218.438C591.215 205.878 591.395 193.248 590.855 180.648L590.865 180.598ZM298.575 79.808C304.485 72.268 311.015 65.308 318.165 58.928C333.175 45.538 349.975 35.138 368.975 28.418C380.545 24.328 392.465 21.858 404.725 21.018C425.155 19.608 445.685 22.518 464.945 29.468C478.755 34.448 491.595 41.438 502.645 51.148C504.245 52.558 505.845 53.978 507.395 55.438C508.225 56.218 509.855 57.338 510.305 58.418C511.095 60.308 508.185 58.748 507.625 58.408C505.685 57.208 503.885 55.718 502.055 54.368C497.455 50.968 492.855 47.508 487.875 44.668C479.275 39.748 470.225 35.618 460.855 32.378C449.465 28.448 437.795 25.768 425.805 24.648C392.615 21.568 362.315 29.7481 334.815 48.458C320.685 58.068 308.505 69.778 297.885 83.148C297.175 84.048 296.435 84.9181 295.705 85.8081C296.085 83.4681 297.185 81.568 298.555 79.818L298.575 79.808ZM163.295 419.468C167.495 407.848 173.075 396.948 180.925 387.318C187.965 378.688 196.345 371.798 206.675 367.428C216.195 363.388 226.135 362.278 236.395 363.018C243.565 363.538 250.495 364.948 257.075 367.828C263.015 370.428 268.995 372.968 274.525 376.408C283.365 381.908 290.945 388.688 296.245 397.768C301.485 406.738 303.805 416.458 303.445 426.828C303.435 427.238 303.385 427.648 303.335 428.218C302.965 424.788 302.755 421.528 302.245 418.308C300.285 405.978 294.925 395.418 285.725 386.858C273.375 375.368 259.025 367.688 242.445 364.428C229.125 361.808 216.505 364.058 204.575 370.448C192.505 376.918 183.455 386.548 176.045 397.848C172.515 403.238 169.685 408.968 168.145 415.308C167.405 418.348 166.035 421.218 165.125 424.218C162.305 433.438 160.995 442.878 161.555 452.518C162.375 466.608 167.475 478.888 177.655 488.758C191.555 502.238 208.375 509.568 227.595 511.288C236.605 512.098 245.425 510.768 253.855 507.328C261.005 504.418 267.055 499.838 272.695 494.678C280.185 487.828 286.175 479.818 291.005 470.908C291.325 470.318 291.695 469.748 292.035 469.158C292.115 469.198 292.205 469.238 292.285 469.278C292.125 469.708 292.005 470.158 291.805 470.568C286.535 481.488 279.785 491.328 270.625 499.378C261.545 507.358 251.115 512.638 239.105 514.278C226.885 515.948 214.875 515.008 203.395 510.048C197.375 507.448 191.395 504.768 185.855 501.198C177.525 495.828 170.425 489.238 165.295 480.678C160.805 473.188 158.345 465.048 157.575 456.358C156.435 443.568 158.995 431.358 163.295 419.438V419.468ZM296.315 437.548C293.355 454.158 286.945 469.338 276.955 482.938C271.145 490.848 264.065 497.418 255.265 501.938C249.195 505.058 242.745 506.878 235.905 507.518C232.185 507.868 228.535 507.718 224.865 507.378C223.905 507.288 222.925 507.108 222.015 506.788C211.985 503.258 202.645 498.498 194.755 491.238C185.795 482.988 180.385 472.858 178.915 460.718C178.605 458.168 178.525 455.578 178.335 453.018C178.355 443.458 180.515 434.328 183.695 425.408C187.925 413.558 193.655 402.518 202.015 392.998C209.555 384.418 218.565 378.108 229.695 375.068C233.955 373.898 238.315 373.378 242.685 373.208C247.235 373.038 251.675 373.698 255.965 375.428C264.035 378.678 271.745 382.508 278.545 387.998C288.625 396.138 294.945 406.488 296.725 419.438C297.565 425.498 297.355 431.548 296.275 437.558L296.315 437.548ZM380.595 426.968C380.895 426.738 381.305 426.648 381.715 426.468C382.245 427.388 381.995 428.048 381.375 428.608C380.855 429.068 380.285 429.478 379.735 429.898C339.925 459.868 300.115 489.828 260.305 519.798C212.795 555.558 165.295 591.318 117.795 627.078C117.205 627.518 116.655 628.008 116.085 628.478C116.335 628.738 116.435 628.928 116.515 628.918C118.985 628.688 121.145 629.658 123.345 630.588C135.435 635.688 147.525 640.768 159.625 645.848C161.045 646.438 162.495 646.948 163.095 648.828C163.935 648.248 164.625 647.808 165.275 647.318C203.445 618.528 241.605 589.738 279.765 560.958C310.745 537.598 341.725 514.238 372.705 490.878C390.595 477.388 408.465 463.888 426.355 450.398C427.135 449.808 427.905 449.198 428.725 448.668C429.785 447.988 430.945 447.658 432.755 447.958C431.715 448.828 431.065 449.418 430.365 449.938C410.035 465.278 389.695 480.618 369.355 495.948C304.005 545.238 238.645 594.538 173.295 643.828C170.395 646.018 167.445 648.128 164.625 650.408C163.305 651.468 162.175 651.578 160.625 650.918C145.725 644.598 130.795 638.338 115.875 632.058C114.425 631.448 112.985 630.788 111.535 630.148L111.485 629.488C201.185 561.978 290.895 494.468 380.605 426.968H380.595ZM392.555 440.348C393.755 439.408 394.775 439.308 396.165 439.898C403.215 442.928 410.295 445.868 417.365 448.848C417.915 449.078 418.435 449.408 419.285 449.858C418.345 450.658 417.665 451.298 416.915 451.868C394.745 468.598 372.575 485.318 350.405 502.038C289.405 548.048 228.405 594.048 167.455 640.108C165.575 641.528 164.115 641.678 162.015 640.748C155.455 637.828 148.795 635.138 142.175 632.348C141.415 632.028 140.685 631.648 139.505 631.078C140.475 630.268 141.075 629.708 141.725 629.218C164.465 612.098 187.215 594.978 209.965 577.858C266.715 535.138 323.475 492.428 380.225 449.708C384.355 446.598 388.505 443.538 392.575 440.358L392.555 440.348ZM350.195 565.338C349.345 565.058 348.495 564.788 347.655 564.498C342.375 562.688 337.075 560.948 331.525 560.058C314.305 557.308 298.835 561.398 285.115 572.068C276.625 578.668 270.015 586.898 264.665 596.188C261.655 601.408 259.045 606.828 257.145 612.518C253.355 623.908 250.825 635.578 251.725 647.668C252.815 662.288 258.445 674.888 269.085 685.158C281.055 696.718 295.325 703.578 311.635 706.518C331.575 710.118 348.585 704.378 363.135 690.678C371.415 682.878 377.865 673.688 382.415 663.288C386.605 653.698 390.335 643.908 391.985 633.468C393.165 626.028 393.355 618.608 392.025 611.178C390.085 600.338 385.265 590.998 377.415 583.258C375.235 581.108 372.925 579.078 370.665 576.998C370.215 576.578 369.745 576.188 369.415 575.518C369.735 575.648 370.095 575.728 370.365 575.928C383.845 585.918 391.965 599.018 393.635 615.898C394.655 626.218 393.085 636.238 390.125 646.058C386.065 659.518 380.255 672.158 371.735 683.428C365.115 692.178 357.175 699.398 347.305 704.348C340.105 707.958 332.495 709.998 324.435 710.538C312.495 711.338 301.125 709.408 290.255 704.278C284.185 701.418 278.175 698.498 272.695 694.578C261.675 686.688 253.735 676.548 249.945 663.408C247.675 655.528 247.045 647.488 247.965 639.358C250.355 618.218 258.315 599.338 271.505 582.718C279.205 573.008 288.855 565.778 300.665 561.698C308.405 559.028 316.395 558.168 324.575 558.548C332.685 558.918 340.485 560.498 347.925 563.758C348.745 564.118 349.545 564.518 350.345 564.898L350.175 565.348L350.195 565.338ZM368.625 583.478C379.025 591.768 385.385 602.378 387.155 615.618C388.095 622.668 387.545 629.698 386.015 636.588C382.435 652.728 375.995 667.608 365.715 680.678C359.035 689.158 350.885 695.788 340.775 699.808C333.125 702.848 325.155 703.808 316.985 703.318C313.445 703.108 310.205 701.818 306.995 700.448C298.445 696.828 290.495 692.278 283.825 685.718C275.855 677.878 271.025 668.468 269.355 657.358C268.005 648.358 268.895 639.548 271.095 630.838C274.635 616.828 280.545 603.888 289.315 592.338C292.965 587.538 297.155 583.258 301.995 579.648C311.455 572.588 322.065 568.888 334.885 569.018C338.645 568.628 343.055 569.708 347.375 571.518C354.925 574.688 362.195 578.318 368.645 583.458L368.625 583.478ZM100.685 532.808C100.785 532.848 100.895 532.898 100.995 532.938C100.805 533.278 100.605 533.608 100.415 533.948C100.505 533.568 100.595 533.188 100.685 532.808ZM44.7153 666.868C48.0253 658.348 51.1853 649.768 54.7153 641.348C68.3053 608.998 82.0253 576.688 95.7053 544.378C96.0553 543.558 96.5653 542.808 97.0053 542.028C96.6753 543.088 96.4253 544.178 96.0053 545.188C83.5653 575.228 71.1253 605.258 58.6653 635.288C54.3353 645.728 49.9553 656.148 45.5953 666.578C45.2253 667.468 44.7953 668.338 44.0453 669.108C44.2653 668.358 44.4253 667.588 44.7153 666.868ZM477.725 211.908C477.685 212.548 477.435 213.168 477.275 213.808C477.095 213.808 476.915 213.798 476.745 213.788C476.625 213.068 476.435 212.358 476.405 211.638C476.325 209.548 476.345 207.448 476.265 205.358C475.985 198.108 475.895 190.848 475.335 183.618C474.715 175.668 473.305 167.818 470.015 160.478C462.625 144.028 449.895 133.968 432.405 130.198C417.015 126.878 402.575 130.268 389.185 138.108C369.995 149.338 358.625 166.078 355.205 188.068C353.005 202.228 354.585 216.018 359.995 229.328C361.185 232.268 362.815 234.928 364.665 237.478C369.635 244.318 375.075 250.768 380.765 257.018C394.605 272.248 408.505 287.438 422.225 302.788C431.945 313.668 440.905 325.178 449.625 336.878C455.805 345.178 461.375 353.868 467.045 362.488C471.205 368.808 474.255 375.728 477.355 382.588C482.375 393.698 485.855 405.308 487.975 417.328C489.675 426.998 489.425 436.628 487.635 446.248C485.565 457.338 482.075 467.988 477.745 478.378C463.125 513.398 448.565 548.448 433.825 583.418C425.475 603.218 416.825 622.888 408.285 642.598C398.715 664.688 389.855 687.068 380.945 709.438C371.025 734.318 360.775 759.068 350.695 783.888C347.785 791.058 345.125 798.348 342.015 805.428C339.805 810.458 337.225 815.358 334.495 820.128C330.885 826.428 326.025 831.718 320.205 836.088C315.125 839.898 309.385 842.038 303.095 842.878C295.215 843.928 287.635 842.808 280.375 839.738C261.815 831.868 243.315 823.868 224.745 816.008C185.435 799.368 146.095 782.778 106.775 766.178C94.8253 761.138 82.8153 756.208 70.9053 751.068C65.2053 748.608 59.7253 745.668 54.0453 743.158C49.8053 741.288 45.9953 738.778 42.2053 736.168C38.0053 733.278 34.9753 729.238 31.5753 725.558C31.4053 725.368 31.3353 725.078 31.2153 724.838C31.3353 724.708 31.4553 724.568 31.5653 724.438C32.0253 724.788 32.5553 725.068 32.9353 725.498C39.6753 733.178 47.9653 738.838 57.0253 743.308C64.1453 746.828 71.4553 749.998 78.7953 753.028C111.485 766.498 144.235 779.838 176.945 793.278C199.265 802.448 221.545 811.718 243.845 820.948C253.965 825.138 264.045 829.418 274.195 833.508C279.565 835.678 285.125 837.278 290.895 838.078C302.535 839.708 312.915 837.248 321.575 828.898C326.815 823.848 331.035 818.038 334.185 811.538C337.405 804.888 340.305 798.078 343.185 791.278C351.015 772.778 358.875 754.288 366.505 735.698C374.955 715.108 383.005 694.358 391.505 673.798C402.305 647.688 413.475 621.738 424.315 595.648C436.285 566.858 448.075 537.988 459.915 509.138C465.185 496.298 470.475 483.458 475.585 470.558C478.745 462.568 481.065 454.318 482.685 445.858C485.755 429.878 484.325 414.258 478.545 399.158C469.055 374.388 456.355 351.338 440.415 330.118C432.315 319.348 423.375 309.268 414.365 299.248C405.065 288.918 395.345 279.028 385.115 269.608C381.215 266.018 377.525 262.198 373.905 258.328C370.955 255.168 368.195 251.828 365.445 248.498C359.295 241.038 354.985 232.498 351.415 223.608C347.125 212.918 346.355 201.738 348.425 190.468C351.165 175.598 357.005 161.978 366.735 150.338C377.875 137.008 392.225 128.818 409.365 125.798C421.915 123.588 434.165 124.968 445.705 130.478C461.635 138.088 471.485 150.728 475.695 167.818C477.295 174.348 477.795 181.028 478.495 187.688C479.355 195.798 478.235 203.848 477.745 211.908H477.725ZM573.925 193.298C573.335 212.888 570.375 232.048 562.925 250.308C561.325 254.238 559.345 258.018 557.395 261.798C555.185 266.078 551.815 269.438 548.295 272.638C548.015 272.888 547.645 273.028 547.315 273.228C547.245 273.158 547.175 273.088 547.095 273.018C547.275 272.678 547.405 272.308 547.645 272.018C555.225 262.448 559.915 251.468 563.265 239.848C566.465 228.758 568.285 217.408 569.315 205.918C569.925 199.108 570.255 192.288 570.115 185.448C569.805 170.098 567.535 155.038 563.215 140.298C559.005 125.958 552.945 112.468 545.175 99.6981C541.185 93.1481 536.885 86.7281 531.645 81.0981C531.485 80.9281 531.335 80.758 531.175 80.598C530.585 79.968 529.955 79.328 529.675 78.508C529.625 78.378 529.595 78.208 529.695 78.108C529.815 77.978 530.025 78.048 530.185 78.138C531.345 78.788 532.255 79.828 533.225 80.718C538.795 85.838 544.445 91.0981 548.955 97.2081C553.315 103.118 556.465 109.808 559.435 116.488C562.365 123.088 564.835 129.888 566.845 136.818C568.875 143.788 570.435 150.898 571.575 158.068C571.695 158.828 571.815 159.588 571.925 160.348C573.525 171.278 574.275 182.268 573.945 193.308L573.925 193.298Z" fill="white" />
        </g>
    </g>

    <defs>
        <style>
              #logo {
                transform-box: fill-box;
                transform-origin: 416px 208px;
                animation: rotation 0.75s ease-in-out infinite alternate;
              }
              @keyframes rotation {
                0% {
                  transform: rotate(-1deg);
                }
                100% {
                  transform: rotate(1deg);
                }
              }
        </style>
    </defs>
</svg>