<svg width="100%" min-height="0" viewBox="0 0 1786 708" fill="none"
    xmlns="http://www.w3.org/2000/svg">
    <g id="logo-blue-text">
        <g id="logo">
            <path id="Vector" d="M505.394 149.418C504.907 138.099 502.74 126.995 499.391 116.155C493.467 96.9702 483.947 79.8075 470.373 64.9869C451.5 44.3788 428.502 30.6214 401.259 24.1384C394.288 22.4757 387.325 20.6931 380.195 19.7978C377.637 19.478 375.071 19.2862 372.505 19.0064C365.974 18.3109 359.595 18.5507 353.072 19.1503C350.618 19.3741 348.164 19.6859 345.725 20.0856C340.849 20.8769 336.029 22.0041 331.305 23.435C315.349 28.2712 301.168 36.313 288.386 46.9448C276.635 56.7213 266.906 68.2564 258.585 81.0225C250.199 93.8846 243.133 107.45 236.729 121.383C230.031 135.964 224.083 150.857 218.304 165.813C211.461 183.519 204.45 201.162 197.136 218.676C187.863 240.867 178.678 263.09 169.453 285.297C161.172 305.242 152.882 325.186 144.593 345.139C134.832 368.633 125.072 392.126 115.311 415.62C106.47 436.9 97.6288 458.188 88.7796 479.467C84.2311 490.419 79.6427 501.354 75.1342 512.322C69.7863 525.344 64.5103 538.398 59.1705 551.428C58.3311 553.49 57.3799 555.504 56.3806 557.495C54.4861 561.268 53.287 565.233 52.7274 569.414C52.6555 569.973 52.8234 570.709 52 570.925V576.272C52.7594 576.44 52.5916 577.104 52.7195 577.615C53.1991 579.558 53.5588 581.532 54.1823 583.427C56.0129 588.951 59.6581 593.171 64.0627 596.825C68.0916 600.174 72.728 602.484 77.4843 604.539C90.6182 610.214 103.76 615.85 116.942 621.414C138.174 630.375 159.421 639.272 180.685 648.169C199.526 656.051 218.392 663.901 237.241 671.759C243.356 674.309 249.464 676.867 255.587 679.393C258.265 680.504 261.039 681.295 263.893 681.847C267.658 682.566 271.383 683.55 275.164 684.141C282.414 685.268 289.473 684.381 296.284 681.623C305.213 678.002 311.48 671.711 315.173 662.83C343.775 593.979 372.377 525.128 400.979 456.285C410.979 432.224 420.939 408.146 431.028 384.117C433.674 377.818 435.744 371.391 436.815 364.644C437.798 358.401 437.958 352.133 437.431 345.834C436.567 335.626 433.482 325.986 429.765 316.537C423.657 300.981 415.04 286.832 405.168 273.41C397.637 263.17 389.54 253.386 380.906 244.065C371.138 233.529 361.185 223.161 351.305 212.729C346.629 207.797 341.928 202.889 337.915 197.381C333.807 191.753 330.505 185.734 328.914 178.883C327.603 173.239 327.38 167.572 328.219 161.808C329.882 150.297 334.902 140.433 342.592 131.847C348.955 124.741 356.605 119.513 365.702 116.507C368.924 115.444 372.217 114.613 375.646 114.533C377.693 114.485 379.755 114.261 381.794 114.413C384.408 114.613 386.646 115.996 388.86 117.267C395.423 121.016 400.291 126.443 403.944 132.982C408.029 140.289 410.196 148.155 410.843 156.5C411.179 160.801 410.827 165.054 410.515 169.322C410.252 172.816 410.02 176.317 409.724 179.802C409.26 185.35 408.949 190.914 409.148 196.477C409.356 202.449 410.036 208.372 412.09 214.024C417.174 227.997 427.175 236.359 441.595 239.588C444.745 240.292 447.879 241.043 451.044 241.667C454.593 242.362 458.151 242.674 461.812 242.322C468.487 241.667 474.442 239.372 479.734 235.288C482.756 232.953 485.242 230.108 487.528 227.07C492.676 220.227 496.225 212.569 498.847 204.471C501.477 196.35 503.108 188.012 504.291 179.555C505.69 169.53 505.834 159.45 505.402 149.386L505.394 149.418ZM272.078 68.9758C276.795 62.9565 282.007 57.4008 287.722 52.3087C299.697 41.6209 313.111 33.3154 328.283 27.9595C337.524 24.698 347.036 22.7235 356.821 22.052C369.715 21.1647 382.705 22.3958 395.191 25.7452C401.402 27.4159 407.478 29.5902 413.353 32.2042C422.986 36.4729 431.571 42.6841 438.941 50.1823C439.669 50.9178 441.635 52.3327 441.763 53.3319C441.811 53.7156 439.821 52.3087 439.805 52.2927C438.981 51.6132 438.15 50.9497 437.311 50.2943C426.783 42.0366 414.816 35.7375 402.202 31.3169C402.01 31.2529 401.818 31.181 401.626 31.117C392.537 27.9755 383.216 25.8411 373.648 24.9458C347.156 22.4837 322.975 29.0147 301.024 43.9471C289.745 51.6212 280.024 60.966 271.551 71.6378C270.983 72.3492 270.392 73.0527 269.808 73.7561C270.112 71.8856 270.983 70.3668 272.078 68.9758ZM164.098 340.095C167.447 330.814 171.899 322.117 178.175 314.434C183.794 307.552 190.485 302.052 198.727 298.559C206.329 295.337 214.259 294.442 222.445 295.041C228.168 295.457 233.7 296.584 238.952 298.886C243.692 300.965 248.464 302.987 252.877 305.737C259.936 310.126 265.987 315.538 270.216 322.788C274.396 329.95 276.251 337.704 275.963 345.978C275.955 346.306 275.915 346.626 275.883 347.089C275.588 344.355 275.42 341.749 275.012 339.183C273.445 329.343 269.168 320.909 261.822 314.083C251.958 304.914 240.511 298.783 227.273 296.177C216.641 294.082 206.561 295.881 197.04 300.981C187.408 306.145 180.181 313.835 174.274 322.852C171.452 327.153 169.198 331.725 167.967 336.785C167.375 339.207 166.288 341.502 165.552 343.9C163.298 351.262 162.251 358.792 162.699 366.49C163.354 377.73 167.423 387.538 175.553 395.42C186.648 406.18 200.078 412.031 215.418 413.406C222.612 414.046 229.655 412.99 236.378 410.249C242.085 407.922 246.914 404.269 251.414 400.152C257.394 394.685 262.174 388.289 266.027 381.183C266.283 380.711 266.578 380.256 266.85 379.792C266.914 379.824 266.986 379.856 267.05 379.888C266.922 380.232 266.826 380.591 266.666 380.919C262.462 389.64 257.074 397.49 249.759 403.917C242.509 410.288 234.187 414.501 224.595 415.812C214.842 417.147 205.25 416.396 196.097 412.439C191.293 410.36 186.512 408.226 182.092 405.372C175.441 401.088 169.781 395.828 165.68 388.993C162.091 383.014 160.133 376.523 159.517 369.584C158.606 359.376 160.652 349.631 164.09 340.111L164.098 340.095ZM270.272 354.532C267.905 367.793 262.797 379.904 254.82 390.768C250.183 397.083 244.531 402.327 237.505 405.932C232.661 408.418 227.513 409.873 222.053 410.384C219.087 410.664 216.169 410.544 213.244 410.273C212.476 410.201 211.693 410.057 210.965 409.801C202.964 406.987 195.505 403.182 189.206 397.386C182.052 390.808 177.735 382.71 176.56 373.021C176.312 370.983 176.248 368.92 176.096 366.874C176.112 359.24 177.839 351.95 180.381 344.835C183.762 335.378 188.327 326.569 195.01 318.967C201.021 312.124 208.215 307.08 217.105 304.65C220.502 303.723 223.979 303.299 227.481 303.171C231.11 303.035 234.651 303.563 238.08 304.938C244.515 307.528 250.679 310.589 256.099 314.97C264.148 321.469 269.184 329.727 270.615 340.063C271.279 344.899 271.111 349.735 270.256 354.524L270.272 354.532ZM337.548 346.09C337.788 345.906 338.115 345.834 338.443 345.69C338.867 346.426 338.667 346.953 338.171 347.401C337.756 347.769 337.3 348.096 336.86 348.432C305.085 372.35 273.301 396.267 241.526 420.185C203.603 448.723 165.688 477.269 127.774 505.815C127.302 506.166 126.862 506.558 126.407 506.934C126.606 507.142 126.686 507.294 126.75 507.286C128.725 507.102 130.451 507.877 132.202 508.613C141.851 512.689 151.507 516.742 161.164 520.787C162.291 521.259 163.458 521.667 163.93 523.169C164.601 522.706 165.153 522.354 165.672 521.962C196.137 498.988 226.593 476.006 257.058 453.023C281.783 434.374 306.516 415.732 331.249 397.083C345.526 386.315 359.795 375.539 374.072 364.772C374.695 364.3 375.303 363.812 375.958 363.389C376.805 362.845 377.725 362.589 379.172 362.821C378.34 363.517 377.821 363.988 377.261 364.404C361.034 376.65 344.798 388.889 328.563 401.136C276.395 440.481 224.235 479.827 172.067 519.172C169.757 520.915 167.399 522.61 165.145 524.424C164.098 525.272 163.194 525.36 161.955 524.832C150.06 519.78 138.15 514.792 126.239 509.78C125.08 509.292 123.929 508.764 122.777 508.261L122.737 507.733C194.338 453.847 265.939 399.96 337.548 346.074V346.09ZM347.092 356.77C348.052 356.018 348.867 355.938 349.978 356.418C355.606 358.84 361.257 361.182 366.901 363.565C367.341 363.748 367.748 364.012 368.428 364.372C367.676 365.011 367.133 365.523 366.533 365.979C348.843 379.328 331.145 392.678 313.446 406.02C264.756 442.743 216.065 479.459 167.415 516.231C165.912 517.366 164.753 517.486 163.066 516.734C157.83 514.408 152.506 512.258 147.231 510.028C146.623 509.772 146.047 509.468 145.096 509.012C145.872 508.365 146.351 507.917 146.871 507.525C165.025 493.856 183.187 480.195 201.341 466.533C246.642 432.439 291.943 398.338 337.244 364.244C340.537 361.766 343.855 359.312 347.1 356.778L347.092 356.77ZM313.278 456.541C312.599 456.317 311.919 456.101 311.248 455.869C307.027 454.422 302.799 453.031 298.378 452.328C284.629 450.138 272.286 453.399 261.327 461.921C254.548 467.189 249.272 473.76 245.003 481.178C242.605 485.343 240.511 489.667 239 494.216C235.978 503.313 233.956 512.618 234.675 522.274C235.538 533.937 240.039 544.001 248.528 552.195C258.089 561.42 269.472 566.896 282.494 569.246C298.41 572.116 311.983 567.543 323.598 556.6C330.209 550.372 335.357 543.034 338.987 534.736C342.336 527.078 345.31 519.268 346.629 510.939C347.564 504.999 347.724 499.076 346.661 493.145C345.11 484.495 341.265 477.037 335.006 470.858C333.263 469.139 331.424 467.516 329.618 465.862C329.258 465.526 328.882 465.214 328.627 464.687C328.882 464.79 329.17 464.854 329.378 465.014C340.138 472.984 346.621 483.44 347.956 496.918C348.771 505.151 347.516 513.153 345.15 520.995C341.912 531.739 337.276 541.827 330.465 550.82C325.181 557.799 318.842 563.57 310.968 567.519C305.221 570.405 299.145 572.028 292.718 572.459C283.19 573.099 274.117 571.556 265.435 567.463C260.591 565.177 255.787 562.851 251.422 559.725C242.629 553.426 236.29 545.336 233.26 534.84C231.446 528.557 230.95 522.138 231.685 515.647C233.596 498.772 239.951 483.704 250.471 470.434C256.618 462.688 264.316 456.916 273.749 453.655C279.928 451.521 286.299 450.841 292.838 451.137C299.313 451.433 305.532 452.688 311.472 455.294C312.127 455.582 312.759 455.901 313.406 456.197L313.27 456.549L313.278 456.541ZM327.987 471.026C336.293 477.645 341.361 486.11 342.776 496.678C343.527 502.305 343.087 507.917 341.864 513.417C339.003 526.303 333.871 538.182 325.661 548.606C320.329 555.377 313.822 560.668 305.748 563.882C299.641 566.312 293.278 567.079 286.755 566.68C283.933 566.512 281.343 565.481 278.777 564.394C271.958 561.508 265.603 557.871 260.279 552.643C253.916 546.383 250.063 538.869 248.736 530.012C247.657 522.834 248.369 515.791 250.127 508.844C252.957 497.661 257.665 487.333 264.676 478.108C267.586 474.279 270.935 470.858 274.796 467.98C282.35 462.344 290.816 459.395 301.048 459.498C304.046 459.187 307.571 460.05 311.016 461.497C317.044 464.023 322.847 466.925 327.995 471.026H327.987ZM114.112 430.577C114.192 430.609 114.28 430.649 114.36 430.681C114.208 430.953 114.048 431.216 113.896 431.488C113.968 431.184 114.04 430.881 114.112 430.577ZM69.4345 537.582C72.0805 530.788 74.5986 523.937 77.4204 517.214C88.268 491.386 99.2196 465.606 110.139 439.81C110.419 439.154 110.827 438.563 111.178 437.939C110.915 438.778 110.715 439.65 110.379 440.465C100.451 464.447 90.5143 488.42 80.57 512.386C77.1086 520.715 73.6233 529.037 70.138 537.358C69.8422 538.07 69.4985 538.765 68.899 539.381C69.0748 538.781 69.2027 538.166 69.4266 537.59L69.4345 537.582ZM415.08 174.414C415.048 174.926 414.848 175.422 414.72 175.925C414.576 175.925 414.432 175.917 414.296 175.909C414.201 175.334 414.049 174.766 414.025 174.191C413.961 172.52 413.977 170.849 413.913 169.179C413.689 163.391 413.617 157.595 413.169 151.824C412.674 145.477 411.555 139.21 408.917 133.35C403.017 120.224 392.857 112.19 378.9 109.185C366.613 106.539 355.086 109.241 344.398 115.492C329.082 124.453 320.009 137.819 317.275 155.365C315.773 165.022 316.42 175.118 319.697 184.359C323.295 194.495 330.553 202.561 337.684 210.403C348.731 222.561 359.827 234.688 370.778 246.935C378.54 255.616 385.687 264.801 392.649 274.146C397.581 280.764 402.026 287.703 406.55 294.594C409.868 299.638 412.306 305.162 414.776 310.637C418.781 319.511 421.563 328.775 423.25 338.368C424.609 346.09 424.409 353.772 422.978 361.454C421.331 370.303 418.541 378.809 415.08 387.106C403.409 415.061 391.794 443.031 380.019 470.946C373.352 486.749 366.453 502.449 359.635 518.189C351.993 535.824 344.926 553.69 337.812 571.54C329.898 591.405 321.712 611.157 313.662 630.966C311.336 636.69 309.218 642.501 306.731 648.161C304.965 652.19 302.91 656.083 300.728 659.896C295.436 669.137 286.347 675.812 275.763 677.49C263.437 679.441 252.749 673.525 241.782 668.833C232.229 664.748 222.692 660.647 213.124 656.602C181.748 643.317 150.348 630.079 118.956 616.825C109.412 612.796 99.8351 608.863 90.3304 604.762C85.7819 602.804 81.4093 600.454 76.8768 598.447C73.4954 596.952 70.4498 594.954 67.4281 592.876C64.0787 590.565 61.6566 587.344 58.9466 584.41C58.8107 584.258 58.7548 584.026 58.6589 583.835C58.7548 583.731 58.8507 583.619 58.9387 583.515C59.3064 583.795 59.73 584.018 60.0338 584.362C65.4137 590.493 72.0325 595.01 79.259 598.583C84.9426 601.389 90.7701 603.923 96.6376 606.337C122.729 617.089 148.877 627.737 174.977 638.464C192.795 645.787 210.582 653.181 228.376 660.543C236.45 663.885 244.499 667.298 252.597 670.568C256.882 672.294 261.327 673.573 265.931 674.221C275.22 675.524 283.509 673.557 290.424 666.89C298.969 658.649 303.142 647.569 307.675 636.858C313.926 622.093 320.201 607.328 326.292 592.492C333.039 576.057 339.458 559.493 346.245 543.082C354.862 522.242 363.775 501.53 372.433 480.706C381.985 457.724 391.402 434.686 400.851 411.655C405.056 401.407 409.284 391.159 413.361 380.855C415.887 374.476 417.734 367.889 419.029 361.142C421.483 348.392 420.34 335.922 415.719 323.859C408.141 304.09 398.013 285.689 385.279 268.75C378.812 260.148 371.673 252.107 364.487 244.113C351.929 230.155 337.396 218.125 325.429 203.6C317.531 194.007 312.079 182.025 311.16 169.562C310.249 157.18 314.27 144.102 320.585 133.534C329.306 118.921 343.583 108.633 360.49 105.66C370.506 103.893 380.283 104.996 389.5 109.401C402.21 115.476 410.084 125.564 413.433 139.21C414.712 144.422 415.104 149.762 415.671 155.069C416.359 161.544 415.464 167.963 415.072 174.406L415.08 174.414ZM441.484 234.48C435.616 233.177 430.364 230.587 425.744 226.734C424.696 225.863 423.737 224.88 423.401 223.393C429.884 229.892 437.662 233.529 446.823 234.232C445.009 234.824 443.242 234.864 441.484 234.472V234.48ZM491.861 159.554C491.389 175.19 489.031 190.49 483.075 205.063C481.796 208.196 480.214 211.218 478.655 214.232C476.888 217.653 474.194 220.323 471.388 222.881C471.165 223.081 470.869 223.193 470.605 223.345C470.549 223.289 470.493 223.233 470.429 223.177C470.573 222.905 470.677 222.609 470.861 222.377C476.912 214.735 480.653 205.974 483.331 196.701C485.889 187.844 487.336 178.787 488.16 169.618C488.647 164.182 488.911 158.739 488.799 153.279C488.551 141.024 486.745 129.01 483.291 117.243C479.934 105.795 475.098 95.0277 468.886 84.8356C465.457 79.1999 461.492 73.988 457.311 68.9119C456.928 68.4482 456.552 67.9686 456.32 67.2971C456.6 67.481 456.912 67.6249 457.143 67.8567C460.917 71.4859 464.746 75.0591 468.423 78.7843C470.477 80.8627 472.332 83.1249 473.843 85.6989C482.484 100.464 487.776 116.363 490.238 133.246C491.509 141.968 492.116 150.745 491.853 159.554H491.861Z" fill="#000E3C" />
            <path id="Vector_2" d="M316.308 487.405C314.11 486.286 311.8 485.51 309.409 484.959C306.588 484.311 303.766 483.704 300.96 482.992C294.997 481.474 289.625 482.681 284.764 486.366C282.079 488.404 279.872 490.906 277.97 493.672C273.533 500.107 270.631 507.254 268.345 514.68C266.914 519.34 266.019 524.081 266.435 528.981C266.778 533.098 268.217 536.759 271.191 539.733C274.612 543.146 278.809 545.072 283.437 546.168C286.571 546.903 289.753 547.455 292.878 548.238C298.202 549.565 303.022 548.574 307.379 545.304C310.816 542.722 313.358 539.341 315.541 535.688C319.266 529.453 322.104 522.802 324.302 515.887C325.533 512.01 326.396 508.045 326.388 504.536C326.444 496.342 323.063 490.858 316.308 487.413V487.405ZM311.664 508.093C309.369 516.527 305.86 524.448 301.128 531.811C299.521 534.313 297.547 536.487 295.156 538.286C291.607 540.94 287.754 541.979 283.366 540.828C280.696 540.124 278.162 539.213 275.947 537.518C273.701 535.808 272.166 533.617 271.471 530.859C270.631 527.51 270.543 524.129 271.151 520.747C272.422 513.729 275.012 507.166 278.273 500.851C278.881 499.668 279.832 498.78 280.823 497.949L281.095 498.157C280.847 498.628 280.616 499.108 280.344 499.572C276.611 506.031 273.941 512.905 272.262 520.172C271.687 522.682 271.495 525.232 271.647 527.806C271.934 532.786 275.116 537.454 281.087 538.965C282.222 539.253 283.334 539.605 284.461 539.916C286.955 540.612 289.305 540.244 291.535 538.949C293.742 537.67 295.476 535.872 297.003 533.865C300.312 529.532 302.631 524.664 304.749 519.684C306.731 515.016 308.442 510.243 309.186 505.191C309.521 502.921 309.577 500.651 309.098 498.388C308.514 495.663 307.155 493.416 304.909 491.77C301.815 489.515 298.37 488.188 294.493 488.292C293.182 488.332 291.887 488.708 290.584 488.932C291.367 486.797 293.837 485.119 296.451 485.239C301.456 485.478 305.908 487.181 309.537 490.746C311.016 492.193 311.856 493.992 312.239 496.014C313.015 500.083 312.751 504.136 311.672 508.093H311.664Z" fill="#000E3C" />
            <path id="Vector_3" d="M254.212 345.778C253.908 340.718 251.798 336.577 247.785 333.444C245.794 331.885 243.612 330.606 241.198 329.903C238 328.967 234.739 328.248 231.493 327.48C229.439 327.001 227.385 326.393 225.298 326.217C220.278 325.778 215.889 327.512 212.036 330.662C208.759 333.34 206.217 336.649 204.083 340.263C200.07 347.073 197.168 354.348 195.313 362.022C194.37 365.923 193.866 369.888 194.498 373.933C195.09 377.738 196.568 381.079 199.366 383.773C202.844 387.114 207.08 388.985 211.709 390.04C214.738 390.736 217.792 391.343 220.838 392.007C225.994 393.134 230.782 392.446 235.099 389.233C238.088 387.002 240.455 384.197 242.437 381.087C246.898 374.092 250.135 366.538 252.533 358.608C253.58 355.131 254.332 351.598 254.22 347.937C254.22 347.209 254.26 346.49 254.22 345.762L254.212 345.778ZM239.431 352.517C237.233 360.271 233.979 367.593 229.783 374.476C227.912 377.538 225.634 380.264 222.716 382.414C219.695 384.636 216.385 385.556 212.644 384.876C209.99 384.396 207.448 383.613 205.146 382.182C201.461 379.896 199.382 376.594 198.759 372.294C198.335 369.368 198.607 366.514 199.206 363.668C200.701 356.642 203.299 350.031 206.689 343.708C207.352 342.469 208.008 341.829 209.374 341.294C209.071 341.813 208.767 342.333 208.463 342.853C204.242 350.015 201.269 357.665 199.734 365.843C199.214 368.601 199.094 371.383 199.846 374.124C201.117 378.729 204.258 381.455 208.727 382.79C209.902 383.141 211.085 383.453 212.26 383.789C214.746 384.5 217.144 384.269 219.335 382.918C220.558 382.166 221.733 381.279 222.756 380.28C223.899 379.153 224.962 377.905 225.85 376.563C231.15 368.537 234.923 359.847 236.961 350.439C237.553 347.705 237.729 344.931 237.121 342.149C236.609 339.791 235.546 337.728 233.7 336.162C229.943 332.988 225.61 331.557 220.686 332.181C219.926 332.277 219.199 332.62 218.455 332.852C218.112 332.964 217.76 333.076 217.136 333.268C219.143 330.366 221.589 328.855 224.851 329.055C229.559 329.351 233.732 331.046 237.217 334.275C238.912 335.85 239.823 337.848 240.215 340.111C240.95 344.315 240.574 348.456 239.423 352.517H239.431Z" fill="#000E3C" />
        </g>
        <g id="text">
            <path id="Vector_4" d="M548.1 365.86C579.25 365.86 603.14 386.12 603.14 421.04C603.14 455.96 579.95 470.91 564.58 472.59L609.84 550.26H570.73L529.66 475.25H511.78V550.26H477.14V365.87H548.1V365.86ZM535.67 450.65C553.27 450.65 567.52 442.83 567.52 422.01C567.52 401.19 553.55 393.65 535.95 393.65H511.78V450.64H535.67V450.65Z" fill="#030E39" />
            <path id="Vector_5" d="M745.18 365.86V396.45H665.42V442.97H744.07V472.72H665.42V519.66H745.18V550.25H630.91V365.86H745.18Z" fill="#030E39" />
            <path id="Vector_6" d="M823.8 365.86C854.67 365.86 882.61 377.04 882.61 410.7C882.61 433.33 867.66 449.81 853.13 452.75C870.03 454.71 890.71 468.4 890.71 498.01C890.71 527.62 870.59 550.25 832.46 550.25H765.27V365.86H823.8ZM822.26 442.27C839.58 442.27 848.1 430.82 848.1 416.85C848.1 399.39 837.06 393.94 819.88 393.94H799.76V442.27H822.25H822.26ZM825.33 522.17C846.7 522.17 854.25 510.85 854.25 495.35C854.25 478.87 843.35 469.79 824.22 469.79H799.77V522.17H825.33Z" fill="#030E39" />
            <path id="Vector_7" d="M991.75 362.5C1045.39 362.5 1085.06 404.13 1085.06 457.91C1085.06 511.69 1046.37 553.6 991.75 553.6C937.13 553.6 898.16 511.83 898.16 457.91C898.16 403.99 938.67 362.5 991.75 362.5ZM991.75 520.91C1025.56 520.91 1049.16 493.25 1049.16 457.91C1049.16 422.57 1025.55 395.05 991.75 395.05C957.95 395.05 934.34 422.71 934.34 457.91C934.34 493.11 957.95 520.91 991.75 520.91Z" fill="#030E39" />
            <path id="Vector_8" d="M1189.84 362.5C1243.48 362.5 1283.15 404.13 1283.15 457.91C1283.15 511.69 1244.46 553.6 1189.84 553.6C1135.22 553.6 1096.25 511.83 1096.25 457.91C1096.25 403.99 1136.76 362.5 1189.84 362.5ZM1189.84 520.91C1223.65 520.91 1247.25 493.25 1247.25 457.91C1247.25 422.57 1223.64 395.05 1189.84 395.05C1156.04 395.05 1132.43 422.71 1132.43 457.91C1132.43 493.11 1156.04 520.91 1189.84 520.91Z" fill="#030E39" />
            <path id="Vector_9" d="M1432.29 550.25H1390.8L1329.34 467.83V550.25H1294.7V365.86H1329.34V444.93L1386.33 365.86H1425.72L1360.2 455.82L1432.28 550.25H1432.29Z" fill="#030E39" />
            <path id="Vector_10" d="M1480.89 365.86V550.25H1446.11V365.86H1480.89Z" fill="#030E39" />
            <path id="Vector_11" d="M1603.01 365.86V396.45H1535.12V442.55H1598.12V473.14H1535.12V550.25H1500.62V365.86H1603.01Z" fill="#030E39" />
            <path id="Vector_12" d="M1614.58 365.86H1656.63L1694.91 444.09L1733.05 365.86H1774.96L1712.38 483.9V550.25H1677.6V483.9L1614.6 365.86H1614.58Z" fill="#030E39" />
        </g>
    </g>

    <defs>
        <style>
              #logo {
                transform-box: fill-box;
                transform-origin: 416px 208px;
                animation: rotation 0.75s ease-in-out infinite alternate;
              }
              @keyframes rotation {
                0% {
                  transform: rotate(-1deg);
                }
                100% {
                  transform: rotate(1deg);
                }
              }
        </style>
    </defs>
</svg>