<svg width="100%" min-height="0" viewBox="0 0 614 868" fill="none"
    xmlns="http://www.w3.org/2000/svg">
    <g id="logo">
        <path id="Vector" d="M590.45 181.077C589.84 166.917 587.13 153.027 582.94 139.467C575.53 115.467 563.62 93.9974 546.64 75.4574C523.03 49.6774 494.26 32.4674 460.18 24.3574C451.46 22.2774 442.75 20.0474 433.83 18.9274C430.63 18.5274 427.42 18.2874 424.21 17.9374C416.04 17.0674 408.06 17.3674 399.9 18.1174C396.83 18.3974 393.76 18.7874 390.71 19.2874C384.61 20.2774 378.58 21.6874 372.67 23.4774C352.71 29.5274 334.97 39.5874 318.98 52.8874C304.28 65.1174 292.11 79.5474 281.7 95.5174C271.21 111.607 262.37 128.577 254.36 146.007C245.98 164.247 238.54 182.877 231.31 201.587C222.75 223.737 213.98 245.807 204.83 267.717C193.23 295.477 181.74 323.277 170.2 351.057C159.84 376.007 149.47 400.957 139.1 425.917C126.89 455.307 114.68 484.697 102.47 514.087C91.4103 540.707 80.3503 567.337 69.2803 593.957C63.5903 607.657 57.8503 621.337 52.2103 635.057C45.5203 651.347 38.9203 667.677 32.2403 683.977C31.1903 686.557 30.0003 689.077 28.7503 691.567C26.3803 696.287 24.8803 701.247 24.1803 706.477C24.0903 707.177 24.3003 708.097 23.2703 708.367V715.057C24.2203 715.267 24.0103 716.097 24.1703 716.737C24.7703 719.167 25.2203 721.637 26.0003 724.007C28.2903 730.917 32.8503 736.197 38.3603 740.767C43.4003 744.957 49.2003 747.847 55.1503 750.417C71.5803 757.517 88.0203 764.567 104.51 771.527C131.07 782.737 157.65 793.867 184.25 804.997C207.82 814.857 231.42 824.677 255 834.507C262.65 837.697 270.29 840.897 277.95 844.057C281.3 845.447 284.77 846.437 288.34 847.127C293.05 848.027 297.71 849.257 302.44 849.997C311.51 851.407 320.34 850.297 328.86 846.847C340.03 842.317 347.87 834.447 352.49 823.337C388.27 737.207 424.05 651.077 459.83 564.957C472.34 534.857 484.8 504.737 497.42 474.677C500.73 466.797 503.32 458.757 504.66 450.317C505.89 442.507 506.09 434.667 505.43 426.787C504.35 414.017 500.49 401.957 495.84 390.137C488.2 370.677 477.42 352.977 465.07 336.187C455.65 323.377 445.52 311.137 434.72 299.477C422.5 286.297 410.05 273.327 397.69 260.277C391.84 254.107 385.96 247.967 380.94 241.077C375.8 234.037 371.67 226.507 369.68 217.937C368.04 210.877 367.76 203.787 368.81 196.577C370.89 182.177 377.17 169.837 386.79 159.097C394.75 150.207 404.32 143.667 415.7 139.907C419.73 138.577 423.85 137.537 428.14 137.437C430.7 137.377 433.28 137.097 435.83 137.287C439.1 137.537 441.9 139.267 444.67 140.857C452.88 145.547 458.97 152.337 463.54 160.517C468.65 169.657 471.36 179.497 472.17 189.937C472.59 195.317 472.15 200.637 471.76 205.977C471.43 210.347 471.14 214.727 470.77 219.087C470.19 226.027 469.8 232.987 470.05 239.947C470.31 247.417 471.16 254.827 473.73 261.897C480.09 279.377 492.6 289.837 510.64 293.877C514.58 294.757 518.5 295.697 522.46 296.477C526.9 297.347 531.35 297.737 535.93 297.297C544.28 296.477 551.73 293.607 558.35 288.497C562.13 285.577 565.24 282.017 568.1 278.217C574.54 269.657 578.98 260.077 582.26 249.947C585.55 239.787 587.59 229.357 589.07 218.777C590.82 206.237 591 193.627 590.46 181.037L590.45 181.077ZM298.58 80.4474C304.48 72.9174 311 65.9674 318.15 59.5974C333.13 46.2274 349.91 35.8374 368.89 29.1374C380.45 25.0574 392.35 22.5874 404.59 21.7474C420.72 20.6374 436.97 22.1774 452.59 26.3674C460.36 28.4574 467.96 31.1774 475.31 34.4474C487.36 39.7874 498.1 47.5574 507.32 56.9374C508.23 57.8574 510.69 59.6274 510.85 60.8774C510.91 61.3574 508.42 59.5974 508.4 59.5774C507.37 58.7274 506.33 57.8974 505.28 57.0774C492.11 46.7474 477.14 38.8674 461.36 33.3374C461.12 33.2574 460.88 33.1674 460.64 33.0874C449.27 29.1574 437.61 26.4874 425.64 25.3674C392.5 22.2874 362.25 30.4574 334.79 49.1374C320.68 58.7374 308.52 70.4274 297.92 83.7774C297.21 84.6674 296.47 85.5474 295.74 86.4274C296.12 84.0874 297.21 82.1874 298.58 80.4474ZM163.5 419.607C167.69 407.997 173.26 397.117 181.11 387.507C188.14 378.897 196.51 372.017 206.82 367.647C216.33 363.617 226.25 362.497 236.49 363.247C243.65 363.767 250.57 365.177 257.14 368.057C263.07 370.657 269.04 373.187 274.56 376.627C283.39 382.117 290.96 388.887 296.25 397.957C301.48 406.917 303.8 416.617 303.44 426.967C303.43 427.377 303.38 427.777 303.34 428.357C302.97 424.937 302.76 421.677 302.25 418.467C300.29 406.157 294.94 395.607 285.75 387.067C273.41 375.597 259.09 367.927 242.53 364.667C229.23 362.047 216.62 364.297 204.71 370.677C192.66 377.137 183.62 386.757 176.23 398.037C172.7 403.417 169.88 409.137 168.34 415.467C167.6 418.497 166.24 421.367 165.32 424.367C162.5 433.577 161.19 442.997 161.75 452.627C162.57 466.687 167.66 478.957 177.83 488.817C191.71 502.277 208.51 509.597 227.7 511.317C236.7 512.117 245.51 510.797 253.92 507.367C261.06 504.457 267.1 499.887 272.73 494.737C280.21 487.897 286.19 479.897 291.01 471.007C291.33 470.417 291.7 469.847 292.04 469.267C292.12 469.307 292.21 469.347 292.29 469.387C292.13 469.817 292.01 470.267 291.81 470.677C286.55 481.587 279.81 491.407 270.66 499.447C261.59 507.417 251.18 512.687 239.18 514.327C226.98 515.997 214.98 515.057 203.53 510.107C197.52 507.507 191.54 504.837 186.01 501.267C177.69 495.907 170.61 489.327 165.48 480.777C160.99 473.297 158.54 465.177 157.77 456.497C156.63 443.727 159.19 431.537 163.49 419.627L163.5 419.607ZM296.32 437.667C293.36 454.257 286.97 469.407 276.99 482.997C271.19 490.897 264.12 497.457 255.33 501.967C249.27 505.077 242.83 506.897 236 507.537C232.29 507.887 228.64 507.737 224.98 507.397C224.02 507.307 223.04 507.127 222.13 506.807C212.12 503.287 202.79 498.527 194.91 491.277C185.96 483.047 180.56 472.917 179.09 460.797C178.78 458.247 178.7 455.667 178.51 453.107C178.53 443.557 180.69 434.437 183.87 425.537C188.1 413.707 193.81 402.687 202.17 393.177C209.69 384.617 218.69 378.307 229.81 375.267C234.06 374.107 238.41 373.577 242.79 373.417C247.33 373.247 251.76 373.907 256.05 375.627C264.1 378.867 271.81 382.697 278.59 388.177C288.66 396.307 294.96 406.637 296.75 419.567C297.58 425.617 297.37 431.667 296.3 437.657L296.32 437.667ZM380.48 427.107C380.78 426.877 381.19 426.787 381.6 426.607C382.13 427.527 381.88 428.187 381.26 428.747C380.74 429.207 380.17 429.617 379.62 430.037C339.87 459.957 300.11 489.877 260.36 519.797C212.92 555.497 165.49 591.207 118.06 626.917C117.47 627.357 116.92 627.847 116.35 628.317C116.6 628.577 116.7 628.767 116.78 628.757C119.25 628.527 121.41 629.497 123.6 630.417C135.67 635.517 147.75 640.587 159.83 645.647C161.24 646.237 162.7 646.747 163.29 648.627C164.13 648.047 164.82 647.607 165.47 647.117C203.58 618.377 241.68 589.627 279.79 560.877C310.72 537.547 341.66 514.227 372.6 490.897C390.46 477.427 408.31 463.947 426.17 450.477C426.95 449.887 427.71 449.277 428.53 448.747C429.59 448.067 430.74 447.747 432.55 448.037C431.51 448.907 430.86 449.497 430.16 450.017C409.86 465.337 389.55 480.647 369.24 495.967C303.98 545.187 238.73 594.407 173.47 643.627C170.58 645.807 167.63 647.927 164.81 650.197C163.5 651.257 162.37 651.367 160.82 650.707C145.94 644.387 131.04 638.147 116.14 631.877C114.69 631.267 113.25 630.607 111.81 629.977L111.76 629.317C201.33 561.907 290.9 494.497 380.48 427.087V427.107ZM392.42 440.467C393.62 439.527 394.64 439.427 396.03 440.027C403.07 443.057 410.14 445.987 417.2 448.967C417.75 449.197 418.26 449.527 419.11 449.977C418.17 450.777 417.49 451.417 416.74 451.987C394.61 468.687 372.47 485.387 350.33 502.077C289.42 548.017 228.51 593.947 167.65 639.947C165.77 641.367 164.32 641.517 162.21 640.577C155.66 637.667 149 634.977 142.4 632.187C141.64 631.867 140.92 631.487 139.73 630.917C140.7 630.107 141.3 629.547 141.95 629.057C164.66 611.957 187.38 594.867 210.09 577.777C266.76 535.127 323.43 492.467 380.1 449.817C384.22 446.717 388.37 443.647 392.43 440.477L392.42 440.467ZM350.12 565.277C349.27 564.997 348.42 564.727 347.58 564.437C342.3 562.627 337.01 560.887 331.48 560.007C314.28 557.267 298.84 561.347 285.13 572.007C276.65 578.597 270.05 586.817 264.71 596.097C261.71 601.307 259.09 606.717 257.2 612.407C253.42 623.787 250.89 635.427 251.79 647.507C252.87 662.097 258.5 674.687 269.12 684.937C281.08 696.477 295.32 703.327 311.61 706.267C331.52 709.857 348.5 704.137 363.03 690.447C371.3 682.657 377.74 673.477 382.28 663.097C386.47 653.517 390.19 643.747 391.84 633.327C393.01 625.897 393.21 618.487 391.88 611.067C389.94 600.247 385.13 590.917 377.3 583.187C375.12 581.037 372.82 579.007 370.56 576.937C370.11 576.517 369.64 576.127 369.32 575.467C369.64 575.597 370 575.677 370.26 575.877C383.72 585.847 391.83 598.927 393.5 615.787C394.52 626.087 392.95 636.097 389.99 645.907C385.94 659.347 380.14 671.967 371.62 683.217C365.01 691.947 357.08 699.167 347.23 704.107C340.04 707.717 332.44 709.747 324.4 710.287C312.48 711.087 301.13 709.157 290.27 704.037C284.21 701.177 278.2 698.267 272.74 694.357C261.74 686.477 253.81 676.357 250.02 663.227C247.75 655.367 247.13 647.337 248.05 639.217C250.44 618.107 258.39 599.257 271.55 582.657C279.24 572.967 288.87 565.747 300.67 561.667C308.4 558.997 316.37 558.147 324.55 558.517C332.65 558.887 340.43 560.457 347.86 563.717C348.68 564.077 349.47 564.477 350.28 564.847L350.11 565.287L350.12 565.277ZM368.52 583.397C378.91 591.677 385.25 602.267 387.02 615.487C387.96 622.527 387.41 629.547 385.88 636.427C382.3 652.547 375.88 667.407 365.61 680.447C358.94 688.917 350.8 695.537 340.7 699.557C333.06 702.597 325.1 703.557 316.94 703.057C313.41 702.847 310.17 701.557 306.96 700.197C298.43 696.587 290.48 692.037 283.82 685.497C275.86 677.667 271.04 668.267 269.38 657.187C268.03 648.207 268.92 639.397 271.12 630.707C274.66 616.717 280.55 603.797 289.32 592.257C292.96 587.467 297.15 583.187 301.98 579.587C311.43 572.537 322.02 568.847 334.82 568.977C338.57 568.587 342.98 569.667 347.29 571.477C354.83 574.637 362.09 578.267 368.53 583.397H368.52ZM100.97 532.797C101.07 532.837 101.18 532.887 101.28 532.927C101.09 533.267 100.89 533.597 100.7 533.937C100.79 533.557 100.88 533.177 100.97 532.797ZM45.0803 666.657C48.3903 658.157 51.5403 649.587 55.0703 641.177C68.6403 608.867 82.3403 576.617 96.0003 544.347C96.3503 543.527 96.8603 542.787 97.3003 542.007C96.9703 543.057 96.7203 544.147 96.3003 545.167C83.8803 575.167 71.4503 605.157 59.0103 635.137C54.6803 645.557 50.3203 655.967 45.9603 666.377C45.5903 667.267 45.1603 668.137 44.4103 668.907C44.6303 668.157 44.7903 667.387 45.0703 666.667L45.0803 666.657ZM477.47 212.347C477.43 212.987 477.18 213.607 477.02 214.237C476.84 214.237 476.66 214.227 476.49 214.217C476.37 213.497 476.18 212.787 476.15 212.067C476.07 209.977 476.09 207.887 476.01 205.797C475.73 198.557 475.64 191.307 475.08 184.087C474.46 176.147 473.06 168.307 469.76 160.977C462.38 144.557 449.67 134.507 432.21 130.747C416.84 127.437 402.42 130.817 389.05 138.637C369.89 149.847 358.54 166.567 355.12 188.517C353.24 200.597 354.05 213.227 358.15 224.787C362.65 237.467 371.73 247.557 380.65 257.367C394.47 272.577 408.35 287.747 422.05 303.067C431.76 313.927 440.7 325.417 449.41 337.107C455.58 345.387 461.14 354.067 466.8 362.687C470.95 368.997 474 375.907 477.09 382.757C482.1 393.857 485.58 405.447 487.69 417.447C489.39 427.107 489.14 436.717 487.35 446.327C485.29 457.397 481.8 468.037 477.47 478.417C462.87 513.387 448.34 548.377 433.61 583.297C425.27 603.067 416.64 622.707 408.11 642.397C398.55 664.457 389.71 686.807 380.81 709.137C370.91 733.987 360.67 758.697 350.6 783.477C347.69 790.637 345.04 797.907 341.93 804.987C339.72 810.027 337.15 814.897 334.42 819.667C327.8 831.227 316.43 839.577 303.19 841.677C287.77 844.117 274.4 836.717 260.68 830.847C248.73 825.737 236.8 820.607 224.83 815.547C185.58 798.927 146.3 782.367 107.03 765.787C95.0903 760.747 83.1103 755.827 71.2203 750.697C65.5303 748.247 60.0603 745.307 54.3903 742.797C50.1603 740.927 46.3503 738.427 42.5703 735.827C38.3803 732.937 35.3503 728.907 31.9603 725.237C31.7903 725.047 31.7203 724.757 31.6003 724.517C31.7203 724.387 31.8403 724.247 31.9503 724.117C32.4103 724.467 32.9403 724.747 33.3203 725.177C40.0503 732.847 48.3303 738.497 57.3703 742.967C64.4803 746.477 71.7703 749.647 79.1103 752.667C111.75 766.117 144.46 779.437 177.11 792.857C199.4 802.017 221.65 811.267 243.91 820.477C254.01 824.657 264.08 828.927 274.21 833.017C279.57 835.177 285.13 836.777 290.89 837.587C302.51 839.217 312.88 836.757 321.53 828.417C332.22 818.107 337.44 804.247 343.11 790.847C350.93 772.377 358.78 753.907 366.4 735.347C374.84 714.787 382.87 694.067 391.36 673.537C402.14 647.467 413.29 621.557 424.12 595.507C436.07 566.757 447.85 537.937 459.67 509.127C464.93 496.307 470.22 483.487 475.32 470.597C478.48 462.617 480.79 454.377 482.41 445.937C485.48 429.987 484.05 414.387 478.27 399.297C468.79 374.567 456.12 351.547 440.19 330.357C432.1 319.597 423.17 309.537 414.18 299.537C398.47 282.077 380.29 267.027 365.32 248.857C355.44 236.857 348.62 221.867 347.47 206.277C346.33 190.787 351.36 174.427 359.26 161.207C370.17 142.927 388.03 130.057 409.18 126.337C421.71 124.127 433.94 125.507 445.47 131.017C461.37 138.617 471.22 151.237 475.41 168.307C477.01 174.827 477.5 181.507 478.21 188.147C479.07 196.247 477.95 204.277 477.46 212.337L477.47 212.347ZM510.5 287.487C503.16 285.857 496.59 282.617 490.81 277.797C489.5 276.707 488.3 275.477 487.88 273.617C495.99 281.747 505.72 286.297 517.18 287.177C514.91 287.917 512.7 287.967 510.5 287.477V287.487ZM573.52 193.757C572.93 213.317 569.98 232.457 562.53 250.687C560.93 254.607 558.95 258.387 557 262.157C554.79 266.437 551.42 269.777 547.91 272.977C547.63 273.227 547.26 273.367 546.93 273.557C546.86 273.487 546.79 273.417 546.71 273.347C546.89 273.007 547.02 272.637 547.25 272.347C554.82 262.787 559.5 251.827 562.85 240.227C566.05 229.147 567.86 217.817 568.89 206.347C569.5 199.547 569.83 192.737 569.69 185.907C569.38 170.577 567.12 155.547 562.8 140.827C558.6 126.507 552.55 113.037 544.78 100.287C540.49 93.2374 535.53 86.7174 530.3 80.3674C529.82 79.7874 529.35 79.1874 529.06 78.3474C529.41 78.5774 529.8 78.7574 530.09 79.0474C534.81 83.5874 539.6 88.0574 544.2 92.7174C546.77 95.3174 549.09 98.1474 550.98 101.367C561.79 119.837 568.41 139.727 571.49 160.847C573.08 171.757 573.84 182.737 573.51 193.757H573.52Z" fill="#000E3C" />
        <path id="Vector_2" d="M353.91 603.887C351.16 602.487 348.27 601.517 345.28 600.827C341.75 600.017 338.22 599.257 334.71 598.367C327.25 596.467 320.53 597.977 314.45 602.587C311.09 605.137 308.33 608.267 305.95 611.727C300.4 619.777 296.77 628.717 293.91 638.007C292.12 643.837 291 649.767 291.52 655.897C291.95 661.047 293.75 665.627 297.47 669.347C301.75 673.617 307 676.027 312.79 677.397C316.71 678.317 320.69 679.007 324.6 679.987C331.26 681.647 337.29 680.407 342.74 676.317C347.04 673.087 350.22 668.857 352.95 664.287C357.61 656.487 361.16 648.167 363.91 639.517C365.45 634.667 366.53 629.707 366.52 625.317C366.59 615.067 362.36 608.207 353.91 603.897V603.887ZM348.1 629.767C345.23 640.317 340.84 650.227 334.92 659.437C332.91 662.567 330.44 665.287 327.45 667.537C323.01 670.857 318.19 672.157 312.7 670.717C309.36 669.837 306.19 668.697 303.42 666.577C300.61 664.437 298.69 661.697 297.82 658.247C296.77 654.057 296.66 649.827 297.42 645.597C299.01 636.817 302.25 628.607 306.33 620.707C307.09 619.227 308.28 618.117 309.52 617.077L309.86 617.337C309.55 617.927 309.26 618.527 308.92 619.107C304.25 627.187 300.91 635.787 298.81 644.877C298.09 648.017 297.85 651.207 298.04 654.427C298.4 660.657 302.38 666.497 309.85 668.387C311.27 668.747 312.66 669.187 314.07 669.577C317.19 670.447 320.13 669.987 322.92 668.367C325.68 666.767 327.85 664.517 329.76 662.007C333.9 656.587 336.8 650.497 339.45 644.267C341.93 638.427 344.07 632.457 345 626.137C345.42 623.297 345.49 620.457 344.89 617.627C344.16 614.217 342.46 611.407 339.65 609.347C335.78 606.527 331.47 604.867 326.62 604.997C324.98 605.047 323.36 605.517 321.73 605.797C322.71 603.127 325.8 601.027 329.07 601.177C335.33 601.477 340.9 603.607 345.44 608.067C347.29 609.877 348.34 612.127 348.82 614.657C349.79 619.747 349.46 624.817 348.11 629.767H348.1Z" fill="#000E3C" />
        <path id="Vector_3" d="M276.23 426.717C275.85 420.387 273.21 415.207 268.19 411.287C265.7 409.337 262.97 407.737 259.95 406.857C255.95 405.687 251.87 404.787 247.81 403.827C245.24 403.227 242.67 402.467 240.06 402.247C233.78 401.697 228.29 403.867 223.47 407.807C219.37 411.157 216.19 415.297 213.52 419.817C208.5 428.337 204.87 437.437 202.55 447.037C201.37 451.917 200.74 456.877 201.53 461.937C202.27 466.697 204.12 470.877 207.62 474.247C211.97 478.427 217.27 480.767 223.06 482.087C226.85 482.957 230.67 483.717 234.48 484.547C240.93 485.957 246.92 485.097 252.32 481.077C256.06 478.287 259.02 474.777 261.5 470.887C267.08 462.137 271.13 452.687 274.13 442.767C275.44 438.417 276.38 433.997 276.24 429.417C276.24 428.507 276.29 427.607 276.24 426.697L276.23 426.717ZM257.74 435.147C254.99 444.847 250.92 454.007 245.67 462.617C243.33 466.447 240.48 469.857 236.83 472.547C233.05 475.327 228.91 476.477 224.23 475.627C220.91 475.027 217.73 474.047 214.85 472.257C210.24 469.397 207.64 465.267 206.86 459.887C206.33 456.227 206.67 452.657 207.42 449.097C209.29 440.307 212.54 432.037 216.78 424.127C217.61 422.577 218.43 421.777 220.14 421.107C219.76 421.757 219.38 422.407 219 423.057C213.72 432.017 210 441.587 208.08 451.817C207.43 455.267 207.28 458.747 208.22 462.177C209.81 467.937 213.74 471.347 219.33 473.017C220.8 473.457 222.28 473.847 223.75 474.267C226.86 475.157 229.86 474.867 232.6 473.177C234.13 472.237 235.6 471.127 236.88 469.877C238.31 468.467 239.64 466.907 240.75 465.227C247.38 455.187 252.1 444.317 254.65 432.547C255.39 429.127 255.61 425.657 254.85 422.177C254.21 419.227 252.88 416.647 250.57 414.687C245.87 410.717 240.45 408.927 234.29 409.707C233.34 409.827 232.43 410.257 231.5 410.547C231.07 410.687 230.63 410.827 229.85 411.067C232.36 407.437 235.42 405.547 239.5 405.797C245.39 406.167 250.61 408.287 254.97 412.327C257.09 414.297 258.23 416.797 258.72 419.627C259.64 424.887 259.17 430.067 257.73 435.147H257.74Z" fill="#000E3C" />
    </g>
    <defs>
        <style>
              #logo {
                transform-box: fill-box;
                transform-origin: 416px 208px;
                animation: rotation 0.75s ease-in-out infinite alternate;
              }
              @keyframes rotation {
                0% {
                  transform: rotate(-1deg);
                }
                100% {
                  transform: rotate(1deg);
                }
              }
        </style>
    </defs>
</svg>